<?xml version="1.0" encoding="UTF-8" standalone="no"?>
<!-- Created with Inkscape (http://www.inkscape.org/) -->

<svg
   version="1.1"
   id="svg1"
   width="2782.7659"
   height="2947.1978"
   viewBox="0 0 2782.7659 2947.1978"
   xmlns="http://www.w3.org/2000/svg"
   xmlns:svg="http://www.w3.org/2000/svg">
  <defs
     id="defs1" />
  <g
     id="g1"
     transform="translate(-74.09409,-412)">
    <path
       id="path2"
       style="fill:#000000"
       d="m 1456.0273,412 c -82.3219,29.76026 125.2967,115.67552 -25.0273,68.77148 -56.7543,-43.60441 -85.5049,23.86089 -140.793,56.5293 -54.1074,33.06896 -104.9168,68.52266 -160.0527,96.70313 -58.95,44.38954 -139.38788,56.1806 -178.1543,125.92578 -50.26277,60.54817 -70.22873,141.47787 -84,216.6875 C 831.69173,1117.5239 816.05676,1263.7659 778.49996,1405 c -4.67953,57.7439 15.36528,105.7562 19.52333,163.0293 7.9692,32.2974 94.92233,77.669 57.5664,95.3595 -57.08118,39.7761 -130.37619,53.2191 -187.50781,92.9394 -27.38707,40.1432 -42.98757,87.5355 -36.83203,138.1719 -71.39507,-28.725 -45.55433,97.8595 -92.23828,130 -25.51817,77.8366 17.22116,161.7305 -24.96094,239.9062 -26.90239,92.0565 -79.57313,173.4695 -113.28906,262.3184 62.42363,44.1976 4.63534,130.1034 -28.57813,191.7695 -24.93737,66.4119 6.29585,135.4901 0.28516,203.6289 -25.34521,76.8313 18.59619,155.901 48.03123,226.877 24.1086,54.98 47.51528,112.2557 75.93359,163.9785 90.44437,-6.7233 17.70723,-138.8025 28.25782,-205.4785 -12.86023,-87.2352 22.12565,-183.8541 85.33789,-61.707 7.40162,53.75 68.45752,68.4133 83.9707,30.2066 40.56224,12.4546 58.03824,73.2954 79.48242,114.0527 29.14527,32.7829 9.44101,98.4221 60.85156,106.8125 65.51318,-14.4531 150.39079,-45.9193 187.66599,28.8086 105.4484,53.6637 240.2194,35.4969 327.6035,-44.6738 63.7813,39.2144 145.4644,35.5348 209.3965,76.8613 80.8574,1.3245 161.4744,10.4302 231.6213,-45.8437 83.2188,-48.748 155.5373,-113.515 236.5547,-166.4805 48.2129,-37.9607 38.4346,-167.3051 57.2383,-136.1873 13.523,63.5007 64.9382,98.4137 80.3656,152.6445 32.9385,33.6446 68.468,-19.7564 25.8474,-59.123 50.7021,21.3881 3.6611,-72.3108 26.0625,-120.9847 22.2515,58.954 64.705,112.8903 132.3184,122.1856 24.866,7.8413 88.2868,17.5781 121.7988,55.3281 53.0292,45.572 75.0131,118.069 142.1133,144.5996 33.0899,-34.0605 -11.3611,-117.3338 -8.414,-172 -8.3875,-51.6998 -13.968,-94.2325 -19.168,-141.3945 -27.6839,-44.3725 13.947,-64.9407 41.6738,-26.6055 53.4339,55.2875 78.1618,34.7452 60.9922,-20.5 -27.2264,-27.3291 -12.875,-59.1256 -38.8306,-84.0938 -0.3678,-15.7334 17.1845,-49.6848 0.1328,-35.2832 -6.7521,-27.4176 -15.3181,-95.0926 -16.7679,-73.123 -14.2113,-22.2537 -27.4702,-74.7785 -14.8439,-66.178 -2.3462,-39.2146 -12.4201,-50.221 -3.6859,-65.3301 -7.7874,-20.1467 -44.8932,-72.1272 -20.3907,-55.8809 -40.8685,-28.6194 -7.5253,-67.3438 -19.5117,-114.6113 -10.7603,-39.8509 -19.6222,-89.5853 -41.7719,-134.8652 -40.1923,-128.9223 -76.8088,-262.318 -176.0424,-362.9294 -48.7473,-78.4282 -133.7814,-122.982 -191.4185,-189.2054 -66.1998,-80.9318 -110.8829,-178.3483 -139.6973,-277.2402 -9.2858,-48.503 -24.2283,-100.5056 -41.1917,-151.2598 -10.2299,-39.9744 -18.4359,-83.5505 -33.6543,-120.2227 1.7207,-17.1408 -18.3149,-95.3998 -22.3281,-78.3886 -19.035,-25.9768 -56.4952,-149.69164 -42,-122.5996 -28.2467,-68.79269 -21.1353,-149.80572 -56.0625,-215.64262 -18.8522,-33.92424 -48.5232,-76.87751 -68.9375,-116.59179 -20.6024,-42.45081 -63.0255,-63.46301 -82.5645,-103.58008 -37.3019,-44.49837 -73.5284,-66.87922 -100.7227,-95.47391 -38.3429,-30.51143 -74.8291,-56.09492 -121.6875,-69 z m -2.6289,6.32227 c 6.7543,11.55023 -10.6751,7.17563 0,0 z M 1511.0586,446 c 3.6278,3.10535 -5.0347,1.89841 0,0 z m -75.4375,52.94727 c 39.5746,41.58197 93.4589,41.96149 143.8945,62.10153 37.2956,29.40251 67.4552,84.73971 98.7461,108.95117 27.2902,42.58866 41.8704,95.42439 62.6309,142 19.5088,33.39659 40.2361,85.9557 55.5293,108.25 16.7349,-35.49815 17.4741,64.01935 7.4687,23.08397 25.4928,86.08936 45.9804,180.42866 81.1367,258.65046 10.9723,26.0468 14.3947,97.9587 37.9961,135.3066 8.0296,65.2508 36.592,124.5155 45.9727,190.3633 26.8033,68.6265 47.9422,138.7702 92,200.0234 31.249,50.5505 70.052,96.6875 117.755,132.2004 108.1793,90.8755 199.3855,209.2625 248.0648,341.4442 23.0688,92.3219 77.9358,178.4633 79.4223,276.2304 -13.1638,37.6507 9.5353,70.5096 11.3678,108.2793 1.2398,58.7282 22.7278,115.8655 6.0565,175.168 11.4046,66.8982 -3.7135,131.852 21.3867,190.9941 18.4735,73.6621 29.9453,177.3528 22.1739,232.9766 -75.8672,-80.4731 -168.6778,-146.1517 -237.5704,-232.9766 -45.9639,-55.0772 -68.1558,-136.9119 -82.3788,-207.9414 -54.7851,-76.218 -58.4945,384.0611 -49.1646,152.631 0.4285,61.068 -80.64,-50.1738 -45.1601,-76.3152 -1.2903,-47.6579 -1.5266,-91.4834 6.0557,-141.603 -4.4456,-77.0564 30.2427,-100.1336 -7.124,-182.7675 -9.145,-55.0022 -58.9181,-100.3184 -65.7402,-149.7812 43.9465,4.6052 -27.7187,-128.8912 -10.3047,-90.3516 0.6345,-68.7672 -25.2662,-136.5889 39.416,-128.248 13.7899,-41.3205 -100.3671,-190.4409 -43.8281,-125.0801 -35.5329,-43.4601 -11.259,-74.217 -31.9375,-112.6582 -37.581,-53.284 -8.5971,-126.2228 -54.1055,-177.9805 -8.2945,-34.5702 -94.9305,-78.9012 -71.9707,-12.5117 18.2373,10.6195 76.8167,120.9435 24.1211,66.3613 -25.7854,-68.3759 -129.0982,-34.235 -153.0293,12.8946 7.7295,28.7889 -99.1876,58.7134 1.0957,33.7265 70.8473,3.7945 137.5079,52.7255 191.8242,87.9437 48.5101,65.2239 -23.8429,86.6346 43.5668,140.1777 48.3619,45.8498 23.1475,211.0727 10.7056,67.7207 4.612,-78.4283 -77.6228,-52.7925 -91.6875,-129.4023 -19.4215,-41.9128 -59.4492,-56.2858 -90.1016,-81.0039 -32.9405,-54.8421 -74.8971,13.8036 -118.3183,-9.7692 -49.3296,-8.742 -165.6113,122.6205 -112.4258,38.5175 17.4689,-50.3466 59.4251,-90.5286 58.6367,-112.8203 -7.501,-24.9953 -33.4989,-0.9576 -70.5254,-10.2441 -51.2802,26.0521 -75.1054,66.1095 -104.0488,113.5117 -45.5894,43.0675 -119.3197,58.2581 -164.0645,120.4023 -36.6482,40.3354 -76.1828,87.2505 -55.3378,129.209 -66.4843,0.3491 -143.1661,-7.9927 -104.2598,-89.7478 25.9145,-73.7307 37.4274,-154.6419 75.8044,-224.3149 74.6112,-91.5434 189.9201,-128.6909 275.0921,-207.1226 49.4588,-62.0571 145.1885,-57.6342 171.5469,-140.1972 14.8724,-60.0552 3.7889,-120.6559 -37.002,-168.2597 -44.4497,-62.4367 -86.6592,-126.0991 -98.6309,-203.4688 -38.3698,-85.5535 -110.4685,-148.892 -176.8945,-211.52934 C 1303.146,862.80795 1209.7688,811.83828 1121.9033,758.32508 1032.0913,733.60877 975.33058,826.3061 960.0029,901.49109 917.40392,1006.5506 942.39876,1124.9075 898.92188,1229.5 c -11.40074,89.6043 -49.67929,176.1666 -39.87897,267.8125 67.96637,96.6087 162.65309,166.1662 237.45699,255.6875 47.8709,45.8391 59.814,118.5383 101.5,166.5 -4.1377,101.7473 -44.9638,4.8222 -66.8887,-36.5566 -38.1353,-38.5238 -55.6389,-94.4567 -94.0488,-131.3653 -32.7946,-22.6415 -95.4212,-52.9737 -130.06246,-95.9513 -79.6823,-51.239 -100.92826,-139.6896 -102.47266,-227.8184 27.11175,-141.8435 58.78696,-282.4582 84.6836,-424.8086 22.79958,-88.39372 34.28901,-187.39238 107.40625,-252 47.00587,-85.35805 149.95217,-19.53707 222.45907,-19.60527 91.5342,9.91928 167.3651,67.56267 215.83,143.55664 52.798,55.39989 89.2868,130.88443 135.9376,186.33203 19.1433,-26.425 -39.1202,-81.21602 -32.8438,-105.7832 34.1264,0.70548 104.7231,139.8339 84,43.14062 -44.6305,-57.1934 -123.5415,-84.12753 -160.3379,-150.08593 -54.6922,-91.52816 -160.6074,-126.40452 -242.7833,-186.03732 60.0751,-70.62959 119.9135,-147.16088 216.7423,-163.5701 z m 33.0215,7.63671 c 5.9943,2.49664 -6.4748,11.24358 0,0 z m 8.0234,1.85743 c 0.8528,8.05901 -5.6491,0.9778 0,0 z m 15.6602,4.70312 c 15.6347,2.76544 2.1399,11.64578 0,0 z M 1358,517.5 c 3.5852,3.84363 -3.7037,2.56396 0,0 z m -31.5,15.5 c 3.5895,6.05819 -7.5777,3.76517 0,0 z m 225.5,7 c 3.7037,2.56396 -3.5852,3.84363 0,0 z m -256,4.5 c 3.5852,3.84363 -3.7037,2.56396 0,0 z m -50.6758,1.70508 c -8.7974,9.45948 5.4021,10.58943 0,0 z M 1350.457,562.75 c 20.3787,18.43274 128.7939,64.64646 34.6426,12.83984 -11.0891,-5.73561 -22.2738,-9.9503 -34.6426,-12.83984 z m 277.3242,3.48828 c 1.6505,5.88968 -4.0063,4.09114 0,0 z M 1617.5,571.9375 c 4.8459,6.63013 -4.8459,6.63013 0,0 z M 1271.3828,573 c 3.0794,5.27656 -1.7144,5.28787 0,0 z m 363.1758,0 c 1.9068,2.87986 -3.4339,2.33395 0,0 z m -369.6524,6.55859 c 2.5798,1.89501 -4.12,3.34214 0,0 z m 232.5489,2 c -84.5841,23.59671 67.475,19.19219 70.457,80.92184 47.6803,-6.47854 -40.9128,-83.0015 -70.457,-80.92184 z m 2.9668,10.76172 c 5.9157,0.62198 -1.115,6.71904 0,0 z m 157.5351,17.15235 c 3.3829,3.81089 -3.8153,1.43297 0,0 z m -410.1328,0.54296 c 4.8935,7.13161 -4.5203,3.91175 0,0 z m 55.0176,6.12305 c -0.8986,15.69069 67.2957,46.8339 0,0 z m -79.4063,7.96289 c 1.2334,2.83624 -7.3825,6.14606 0,0 z m -7.7089,7.29102 c -11.9618,24.4731 -18.9755,3.94318 0,0 z M 1685,640 c 3.6531,3.90318 -3.6531,3.90318 0,0 z m 12.3223,9.54102 c 9.5998,3.50456 -6.6043,8.39956 0,0 z m -387.5625,10.98632 c -31.819,18.7478 160.0284,53.86815 83.0277,45.89649 -19.1254,-27.30332 -57.4239,-26.94063 -83.0277,-45.89649 z m -94.2539,9.10938 c 5.1532,0.80166 -4.2632,3.01666 0,0 z M 1147,676.5 c 3.7037,2.56396 -3.5852,3.84363 0,0 z m 46.0195,0.5 c 17.0057,8.44588 -11.247,9.5886 0,0 z m -8.4316,3.03516 c 9.1729,6.02266 -12.0981,4.5258 0,0 z m 255.75,0.55468 c -56.9214,4.49764 89.7459,96.89728 3.2891,80.36328 C 1335.8908,742.6941 1563.3149,834.78225 1534.4141,803 1594.4281,838.6245 1639.4202,890.41254 1683,942.82422 1693.9205,949.75061 1629.4862,832.85645 1589.5,800 1548.2688,749.06527 1487.1836,724.26742 1440.3379,680.58984 Z M 1733.1113,690 c 6.0046,8.68688 -15.5521,5.08271 0,0 z m 14.086,9.47852 c 13.4309,6.43444 -16.8981,15.942 0,0 z m -9.4551,13.80859 c 4.8461,3.20717 -5.3722,4.57845 0,0 z m 10.1953,7.90039 c 3.6462,3.3059 -5.5831,3.13548 0,0 z m -178.7461,1.80859 c -48.2862,13.35635 48.4019,83.37216 37.1277,67.93095 21.3971,65.96567 114.3925,114.03916 108.6301,196.57296 11.8008,65.4621 91.1681,213.7958 54.1446,177.248 -12.7531,38.5087 32.5551,103.4198 47.0371,149.4058 21.1593,69.9352 49.4146,138.6946 73.4572,207.666 1.3288,-45.3522 -49.264,-139.7349 -66.0801,-203.832 -12.4113,-27.1319 -74.9931,-168.6557 -29.1797,-107.7383 19.6081,39.8398 35.1075,93.4663 72.9317,115.1445 7.0706,-23.7416 -47.9588,-135.5525 -41.6094,-100.1875 -31.1066,-49.5841 -33.3703,-100.7363 -43.1582,-142.6236 10.5551,109.752 -40.2821,-133.99433 -38.3852,-71.5834 31.3967,47.3315 53.2893,93.6086 13.2149,4.5 -25.1338,-48.32483 -19.73,-108.7396 -67.8223,-144.5 -43.19,-47.45028 -72.4278,-103.45586 -120.3084,-148.00341 z M 1747.5586,737 c 1.9068,2.87986 -3.4339,2.33395 0,0 z M 1721,742 c 3.6531,3.90318 -3.6531,3.90318 0,0 z m 30.7422,2.28711 c 4.8461,3.20717 -5.3722,4.57845 0,0 z m 10.7578,0.5625 c 4.6439,2.71067 -4.6439,2.71067 0,0 z M 1326.041,746 c 20.0011,6.50782 -2.8903,8.8858 0,0 z m 398.0762,3 c 3.7738,4.31408 -5.4063,2.00772 0,0 z m -387.2051,3.11523 c 10.8309,3.69016 -4.5239,9.44549 0,0 z m 163.0078,5.07813 c 63.0644,28.24019 106.8698,103.34372 12.5801,24.23437 -11.451,-2.56661 -28.9337,-15.7354 -12.5801,-24.23437 z m 225.8516,0.0762 c 4.7241,4.58519 -5.5292,5.08421 0,0 z M 1346.0312,758 c 8.6823,3.35427 -4.6933,8.70011 0,0 z m 8.1387,5.50195 c 27.4717,12.71892 21.4842,34.99119 0,0 z M 1378.8516,781 c 9.5834,8.21194 -8.7088,5.58777 0,0 z m 7.3632,7.14453 c 16.8221,9.77839 -3.0472,13.79401 0,0 z m 11.4395,9.9668 c 25.4383,12.9335 7.2071,25.40118 0,0 z M 1773.2344,817 c 1.925,3.95349 -9.764,4.57673 0,0 z m -355.1035,2.41992 c 7.4296,0.83752 -3.0053,7.77554 0,0 z m 8.1992,6.75781 c 4.6878,2.4804 -7.2415,2.19677 0,0 z M 1432.0586,829 c 7.9611,3.38036 -9.0403,6.10963 0,0 z m 218.0586,6 c 1.7268,3.46959 -4.6676,1.65091 0,0 z m -210.793,3.14648 c 16.5091,14.01727 2.562,24.00231 0,0 z m 338.8477,6.9629 c 3.8289,7.14547 -5.4157,3.07267 0,0 z m 15.6347,1.9375 c 6.3824,13.729 -32.8557,18.85211 0,0 z m -341.7168,7.50976 c 5.1872,12.07423 -11.3636,0.96098 0,0 z m 2.1797,4.55469 c 3.501,2.21487 0.6287,4.20551 0,0 z M 1462.5469,865 c 12.4521,10.73263 -16.3084,7.2979 0,0 z m -163.6699,3 c 10.2804,4.27592 -6.3094,7.37839 0,0 z m 139.4335,2.35742 c 6.9013,-0.43746 -1.2941,9.0526 0,0 z m 355.8379,3.72266 c 11.827,24.95401 -8.8514,36.59056 0,0 z m -484.4375,2.79297 c 22.2448,19.25125 -9.6612,2.6401 0,0 z M 1472.7715,883 c 26.1389,14.49238 -5.9028,6.27822 0,0 z m 330.2871,5 c 1.9068,2.87986 -3.4339,2.33395 0,0 z M 1329,894 c 15.7242,6.18585 -4.2588,7.40508 0,0 z m -177.5938,2 c 13.5267,8.56692 -8.7974,7.97048 0,0 z m 637.6524,2 c 1.9068,2.87986 -3.4339,2.33395 0,0 z M 1492,901 c 6.4214,5.49312 -3.9847,7.02513 0,0 z m -16.3164,0.8125 c 1.4311,4.38359 -1.9277,0.43047 0,0 z m 348.4121,1.23047 c 3.7557,4.86551 -4.9237,2.187 0,0 z M 1711.9414,908 c 3.4339,2.33395 -1.9068,2.87986 0,0 z m -223.7812,1 c 5.6438,6.54103 -12.4418,8.22456 0,0 z m 13.6621,0.96484 c -4.6752,9.51924 -3.8754,-1.58777 0,0 z M 1505,913.5 c 3.8562,2.65344 -3.6299,4.98842 0,0 z m -150,2 c 3.755,3.72164 -3.6609,5.46435 0,0 z m 156.1699,0.10938 c 3.0081,14.10282 -14.7576,5.53125 0,0 z M 1368,922 c 3.6531,3.90318 -3.6531,3.90318 0,0 z m 145.9062,0.28711 c 23.0967,23.40597 -7.7749,17.1263 0,0 z m -17.08,2.93164 c 4.2283,5.92803 -5.8332,8.95237 0,0 z m 320.6679,7.03906 c 1.217,5.12336 -6.9964,2.25064 0,0 z m -314.9199,0.78907 c 9.2122,5.52891 -13.5821,7.04126 0,0 z m 26.3301,6.39453 c 2.1147,13.68712 -13.992,2.86936 0,0 z M 1723.5586,940 c 1.9068,2.87986 -3.4339,2.33395 0,0 z m -212.5527,5.49609 c 3.4335,3.93511 -8.7004,7.88173 0,0 z M 1404,947.5 c 3.8562,2.65344 -3.6299,4.98842 0,0 z m -112.3164,2.3125 c 1.4311,4.38359 -1.9277,0.43047 0,0 z m 524.4277,1.61914 c 9.4056,4.00066 -6.818,14.35799 0,0 z m -301.1621,4.125 c 13.2408,21.40125 3.4851,-1.19612 0,0 z M 1814.5586,961 c 1.9068,2.87986 -3.4339,2.33395 0,0 z m -400.1289,0.11523 c 18.2787,11.44129 1.1141,6.44506 0,0 z M 1719.0586,962 c 1.9068,2.87986 -3.4339,2.33395 0,0 z m -320.7344,2.06836 c 9.7477,3.57791 -4.3007,6.15968 0,0 z m -15.3398,0.44141 c 3.5686,0.78479 -2.9459,3.0873 0,0 z m 440.8242,2.19921 c 6.7402,9.88701 -16.8539,14.54578 0,0 z M 1841.6855,970 c 9.0033,7.89543 -15.4022,6.31799 0,0 z M 909,971 c -3.58523,3.84363 3.70375,2.56396 0,0 z m 495,3.5 c 3.5852,3.84363 -3.7037,2.56396 0,0 z m 13.8828,0.5 c 4.6676,1.65091 -1.7268,3.46959 0,0 z m -56.293,0.25586 c 2.5,4.02809 -8.1146,2.43636 0,0 z m 164.4844,0.46875 c -0.3083,3.39197 -4.3064,-1.66508 0,0 z M 1426,977 c 3.5875,2.55494 -3.5875,2.55494 0,0 z m 397.7988,2 c 3.9243,3.83061 -9.8132,0.97387 0,0 z m 21.7813,1.40625 c 0.6534,5.50469 -6.7778,4.19492 0,0 z M 1423,980.5 c 3.5621,2.46543 -3.6559,1.21041 0,0 z m 310,0.5 c 3.6531,3.90318 -3.6531,3.90318 0,0 z m -198.9707,1.11133 c 5.9772,7.90796 -4.1728,15.7584 0,0 z m -168.7793,0.44336 c 18.9689,75.38061 39.0621,14.65282 84.5645,71.94531 63.2734,51.0253 45.9265,143.5531 64.1621,202 -4.9582,70.7664 -33.94,131.4298 -60.8868,182.6406 79.579,-6.1088 57.1126,-60.4096 119.5704,-79.5371 35.6999,50.4994 -59.7893,90.5979 -106.4336,109.3965 -77.7815,33.1031 -159.6771,-4.6595 -225.0723,-47.9356 -31.1552,-43.3226 -112.6904,-78.0662 -46.7129,-22.5332 63.9367,32.3708 -112.6619,-39.5244 -135.4316,36.1172 -32.6711,46.7596 -107.90288,-58.227 -63.08219,-87.0703 -13.60438,-87.5821 132.07079,-38.5951 15.07239,-7.0996 31.039,-15.9117 117.3893,-13.6641 84.4863,-67.4785 -33.9717,-39.9337 -132.19513,-35.991 -50.6543,-39.4258 79.7225,-6.3829 -102.01097,-31.8558 -59.65426,-20.7503 -42.17397,15.6474 110.66536,-33.7015 6.81836,-25.0859 -60.18985,-15.4488 33.0408,-35.1463 75.209,-8.9864 111.07,8.7086 -88.26166,-11.0221 4.791,-27.0937 55.0013,-40.6698 59.5351,-18.3904 97.5,17.3418 -47.1107,54.7172 61.0222,-4.3325 97.7832,0 25.0859,-2.3178 74.2599,-42.1085 115.7305,-25 10.0782,16.4146 107.3458,-52.7524 48,-56.0195 -84.1149,46.7629 -70.1803,-50.3697 -68.0196,-101.29496 l 2.2559,-4.12695 z M 1414.5,986 c 5.4032,1.22804 -5.6243,6.84071 0,0 z m -449.51953,3 c 4.9514,14.2905 -4.25268,6.44928 0,0 z m 456.07613,0.17773 c 13.9986,23.31057 -11.2289,5.96386 0,0 z M 1878.0586,997 c 1.9068,2.87986 -3.4339,2.33395 0,0 z M 1387,997.5 c 3.8562,2.6534 -3.6299,4.9884 0,0 z m 63.2188,2.5 c 16.3535,9.2783 -3.7121,6.9917 0,0 z m -103.1055,3.7129 c 4.1361,5.2679 -3.942,-0.1443 0,0 z M 1879,1006 c 3.7014,6.5773 -3.7014,6.5773 0,0 z m -42.125,2.6621 c 0.8262,7.0667 -10.1437,3.1803 0,0 z M 1547,1011.5 c 3.5852,3.8436 -3.7038,2.5639 0,0 z m 290.9238,2.2754 c 9.4111,0.5446 -7.2855,6.1327 0,0 z m -287.1738,0.4141 c 6.3966,1.6492 -6.2134,6.2115 0,0 z M 1856.5,1020 c 5.269,2.4793 -5.269,2.4793 0,0 z m 28.7148,0.5039 c 15.6527,14.34 -18.044,0.2893 0,0 z m -37.623,0.2676 c -9.949,40.7931 -1.0578,-6.9866 0,0 z M 1558,1025 c 3.6531,3.9032 -3.6531,3.9032 0,0 z m 5.0879,7.4453 c 8.695,5.3437 -1.3175,8.3463 0,0 z M 1355.1992,1033 c 3.7945,7.3175 -10.0429,8.7064 0,0 z m -11.6347,9.4258 c 52.0629,50.6502 -25.1773,35.5678 -42.2008,67.5117 30.5812,8.4086 -1.3986,-39.6598 42.2008,-67.5117 z M 1846.2148,1043 c 6.4437,4.2899 -12.6466,4.1498 0,0 z m -277.4648,2.416 c 1.4693,3.2316 -6.4212,1.6398 0,0 z m 284.9961,8.4238 c 1.3767,25.1103 -8.5645,11.1931 0,0 z M 1258,1062 c 10.8651,6.2749 -10.0858,7.0679 0,0 z m 597.6328,16.1973 c 8.7312,1.3734 -7.048,8.3092 0,0 z m 2.4219,6.414 c 4.8166,5.2804 -11.1172,3.4783 0,0 z m 13.5039,0.3887 c 1.9068,2.8799 -3.4339,2.334 0,0 z M 1488,1094 c 3.5875,2.5549 -3.5875,2.5549 0,0 z m 371.6582,0.4883 c -0.8131,10.0237 -8.6371,1.3487 0,0 z M 1127.125,1096 c -18.871,24.2382 -96.4963,56.6153 -32.582,16.8926 9.6513,-7.6292 20.8285,-13.2388 32.582,-16.8926 z m 365.4785,3.2715 c 2.8679,2.8911 -4.3626,2.3493 0,0 z M 1878.123,1101 c 3.6246,4.7884 -6.5661,2.8596 0,0 z M 1536,1103 c 3.5875,2.5549 -3.5875,2.5549 0,0 z m -16,4.5 c 3.8562,2.6534 -3.6299,4.9884 0,0 z m -23.1543,0.7578 c 4.4369,3.5359 -5.4191,3.4183 0,0 z M 1394.9805,1109 c 10.0784,8.2949 -5.1932,18.9901 0,0 z m 490.6875,1.334 c 0.2272,3.0986 -8.0459,1.8217 0,0 z m -21.6094,0.666 c 3.6278,3.1054 -5.0347,1.8984 0,0 z m -626.4492,0.127 c 3.3694,44.2828 -71.8115,44.9009 0,0 z m 632.0351,5.1875 c 2.8577,4.2737 -9.6761,3.4032 0,0 z M 1145,1118 c 4.4525,8.3956 -6.0086,1.9953 0,0 z m 743.0723,0 c 4.381,7.2625 -13.4308,5.2865 0,0 z M 1152,1118.5 c 3.755,3.7216 -3.6609,5.4644 0,0 z m 512.9531,0.6777 c -15.5124,46.223 -12.6598,120.4685 28.0469,164.586 26.8752,63.6826 80.7161,116.2695 83.4492,189.9902 27.2111,82.9729 -49.4591,133.2781 -108.2031,168.9023 -60.4358,48.8647 -129.3134,82.6677 -195.7461,121.5059 -71.872,59.6055 -163.8646,98.4944 -225.373,168.3379 -13.2625,29.1707 12.4647,132.2507 -18.4232,107.239 18.0239,-69.2352 49.687,-135.1511 125.7982,-131.8367 89.3799,-48.0476 156.7118,-138.5988 263.498,-147.9199 63.597,-47.9064 104.6969,37.2952 79.25,-33.0449 85.8024,-47.6042 147.9291,-117.8611 164.5059,-205.1387 14.6036,-52.7682 -38.9143,-92.1002 -49.788,-132.2597 -10.5227,-63.9547 -68.2252,-114.364 -98.9688,-172.4395 -19.8596,-31.8447 -8.6614,-95.333 -48.046,-97.9219 z M 1399.5352,1124 c 6.2301,3.6541 -9.6525,8.1671 0,0 z m -435.13481,4.0469 c 46.70311,20.0592 -52.48644,15.1239 0,0 z m 177.02541,0.2695 c 6.3734,-0.9009 -0.3143,5.0689 0,0 z M 1515,1133 c 3.755,3.7216 -3.6609,5.4644 0,0 z m -368.5,1 c 5.3812,3.8324 -5.3812,3.8324 0,0 z m -162.44531,0.068 c 4.1149,3.2742 -8.94554,2.4932 0,0 z m 555.01951,8.6562 c -0.3083,3.3919 -4.3064,-1.665 0,0 z m -4.3066,1.5234 c 4.7701,5.785 -5.5862,6.659 0,0 z m 345.6367,3.7832 c 0.2958,4.1786 -11.637,4.6896 0,0 z m -684.3594,3.0235 c 5.2689,9.8117 -5.3914,2.84 0,0 z M 1882.3281,1152 c 3.9483,7.2067 -13.9052,5.4801 0,0 z m 13.7227,3 c 0.5958,4.9049 -6.9655,1.747 0,0 z m -11.3125,6.4062 c 2.2222,4.6762 -11.153,4.2193 0,0 z m -348.1153,5.0704 c 3.676,8.475 -10.9542,2.7764 0,0 z m 351.877,5.373 c 4.6438,2.7107 -4.6438,2.7107 0,0 z m 16.1934,0.6367 c -1.0527,5.7785 -6.8809,1.8839 0,0 z m -374.2051,9.2071 c 1.5066,6.6483 -11.9308,12.0566 0,0 z M 1897.5586,1189 c 1.9068,2.8799 -3.4339,2.334 0,0 z m -547.0586,1.5 c -25.4785,-8.7121 -132.9029,40.8724 -63.9258,25.5293 51.2881,-39.7361 97.2174,6.8128 143.2813,7.598 145.1661,27.0785 -165.5323,-43.136 -29.8555,-13.1192 -18.9798,-1.2813 -31.4253,-17.9766 -49.5,-20.0081 z m 551,1.2656 c 6.0608,1.0188 -12.6426,9.4827 0,0 z m -370.75,4.5782 c 3.0776,11.2078 -6.6523,2.7857 0,0 z m -378.3906,5.6035 c -47.9846,20.9441 79.363,69.5623 49.9023,75.8535 64.1148,-15.9838 97.2207,11.5528 149.3399,31.6877 11.5595,-41.4008 147.0007,-66.715 43.1093,-79.9355 -57.3181,-28.913 -198.6445,-15.3168 -168.6484,18.0469 -27.2024,-40.4706 -39.542,62.6465 -73.7031,-45.6526 z m 301.7226,0.2324 c -41.7739,7.8706 1.3861,19.0304 0,0 z M 1905.5723,1213 c 4.3589,5.1601 -7.8239,2.3257 0,0 z m 13.9726,2.0762 c 5.7565,4.2995 -7.6815,4.9215 0,0 z m -7.3672,4.8125 c 9.8898,5.891 -13.4268,3.703 0,0 z M 967,1220 c 3.58745,2.5549 -3.58745,2.5549 0,0 z m 946.6855,7.3516 c 1.515,4.7546 -10.2235,1.3084 0,0 z m 1.0137,14.08 c 0.3909,4.3553 -5.3051,2.5249 0,0 z M 1586.0586,1243 c 3.6278,3.1054 -5.0347,1.8984 0,0 z M 1557,1247.5 c 3.5852,3.8436 -3.7038,2.5639 0,0 z m 370.6328,2.8008 c 0.2879,4.5167 -12.0812,2.87 0,0 z m -530.75,3.6992 c 4.6676,1.6509 -1.7268,3.4696 0,0 z m 517.8164,0.4316 c 0.3909,4.3553 -5.3051,2.5249 0,0 z M 1306.5586,1259 c 1.9068,2.8799 -3.4339,2.334 0,0 z m -340.8711,3.1895 c 16.92332,7.9168 -12.4452,11.8908 0,0 z m 90.916,10.082 c 2.8679,2.8911 -4.3626,2.3493 0,0 z m 863.7949,0.7558 c -0.9984,6.3497 -20.4001,8.8699 0,0 z M 1624.5,1284 c 5.467,1.4951 -4.8258,4.4558 0,0 z m -590.5,2.5 c 3.5621,2.4655 -3.6559,1.2104 0,0 z m 9,4 c 3.5621,2.4655 -3.6559,1.2104 0,0 z m 875.2539,0.1562 c -0.5229,4.8392 -6.9376,0.1867 0,0 z m -721.8242,9.7461 c -10.7144,19.1221 46.6371,21.8454 0,0 z m 53.3164,5.5879 c 50.0636,47.1319 114.1749,62.4732 22.2539,10.8731 -8.8002,-1.0394 -13.6717,-9.6791 -22.2539,-10.8731 z m 673.6484,4.7364 c 1.5129,4.4242 -9.4426,1.0388 0,0 z m -727.9433,0.125 c -8.643,29.5131 45.4783,46.3897 -3e-4,2e-4 z m -83.6094,1.5976 c -11.9078,14.9762 -143.56384,103.5311 -77.3418,68.4668 38.0664,-18.681 41.2307,-12.4699 77.3418,-68.4668 z M 1407.5391,1313 c -12.8644,8.3266 9.26,3.113 0,0 z m -234.3711,1.9102 c 31.3215,65.1649 99.375,80.4635 0,0 z m 246.4179,0.8222 c -14.8742,16.135 47.1915,23.2359 0,0 z m -43.1582,36.6621 c -5.521,22.1203 47.4053,28.2447 6.1875,3.2735 z M 1803.6855,1374 c 5.2699,3.0165 -8.6349,8.3984 0,0 z m -517.3183,0.086 c 32.6187,48.1747 80.8907,43.2339 0,0 z M 1089.9824,1384 c -73.8,34.1044 -19.6542,39.2842 0,0 z m 673.5762,15 c 1.9068,2.8799 -3.4339,2.334 0,0 z m -247.4688,1 c 3.198,7.5895 -18.5176,11.1602 0,0 z m -77.7207,5.5137 c -17.1696,19.4611 26.0182,6.4673 0,0 z m -79.1816,14.5234 c -10.1494,19.6828 43.3756,23.8334 0,0 z m -174.1719,0.4727 c 2.9459,3.0874 -3.5686,0.7847 0,0 z m 29.0449,2.5996 c 8.1413,5.4292 -2.6757,5.5252 0,0 z m 16.6583,1.9746 c 8.7332,5.8801 -7.4319,1.8856 0,0 z m 152.4355,0.916 c 10.2877,35.9027 72.9708,39.6082 0,0 z m 314.6582,26.3164 c 4.3836,-1.4311 0.4304,1.9277 0,0 z m -449.1523,6.7695 c 7.7252,2.6077 1.8691,5.9992 0,0 z m 279.6093,4.5957 c 14.0863,18.6179 -23.117,2.8023 0,0 z M 1800.168,1464 c 29.5761,64.6056 0.8983,85.8927 0,0 z m -308.3457,14.0527 c -19.1087,26.3001 -13.2357,-4.6701 0,0 z m 409.5527,0.6328 c 12.0812,51.429 59.8311,56.8642 0,0 z M 1515.5,1490 c 5.467,1.4951 -4.8258,4.4558 0,0 z m -47.1719,1.3105 c 89.8647,28.2717 -0.8326,-13.0031 -24.3281,5.0277 7.6767,-3.2044 16.0433,-4.7057 24.3281,-5.0277 z m 39.2031,0.6895 c 4.9473,3.5876 -3.5383,4.1835 0,0 z m 225.0274,13 c -5.0347,1.8984 3.6278,3.1054 0,0 z m -339.207,9.7188 c 24.144,2.5556 35.8639,24.568 0,0 z m 29.1074,8.7246 c 82.8775,1.3706 43.4541,29.4828 0,0 z M 1519,1527 c 3.5875,2.5549 -3.5875,2.5549 0,0 z m 285.5957,2.0371 c 4.924,3.8265 -7.5905,2.6256 0,0 z M 1997.6914,1531 c 1.2138,4.7946 -11.5957,3.2235 0,0 z m -455.5371,3.2578 c 5.4191,3.4183 -4.4369,3.5359 0,0 z m 458.6582,4.0586 c 4.3836,-1.4311 0.4304,1.9277 0,0 z m -452.2598,1.877 c -4.2675,19.1784 -36.3937,-0.4007 0,0 z M 1533.0449,1547 c 17.8084,12.518 -14.6374,9.4832 0,0 z M 1349,1552.5 c 3.5621,2.4655 -3.6559,1.2104 0,0 z m 280.3711,3.4766 c -7.9751,9.8204 -12.646,1.4627 0,0 z m 382.8789,23.039 c 3.6751,2.4928 -7.23,0.7866 0,0 z m -556.5918,19.3106 c -5.6084,7.7589 -12.9976,-2.6854 0,0 z m 600.459,1.6738 c 1.7268,3.4696 -4.6676,1.6509 0,0 z m -1.0586,6 c 1.9068,2.8799 -3.4339,2.334 0,0 z m -15,17 c 3.6278,3.1054 -5.0347,1.8984 0,0 z m -241.5,1 c 1.9068,2.8799 -3.4339,2.334 0,0 z m 250.3105,10.9512 c 0.8048,6.3533 -8.6067,1.3193 0,0 z m 4.9434,2.3652 c 4.3836,-1.4311 0.4304,1.9277 0,0 z m -680.5898,14.7168 c 2.082,10.9688 -35.843,10.105 0,0 z M 1304.5586,1687 c 3.6278,3.1054 -5.0347,1.8984 0,0 z m -443.57813,3.2246 c 89.31797,37.2735 -42.70079,77.4664 -13.09962,152.7757 17.588,58.3113 4.87738,124.5226 37.80277,180.9999 0.33122,50.1544 47.6181,110.6576 33.91797,150.8359 -49.41605,16.3152 -66.85237,37.7065 -119.68554,53.0918 -46.06307,35.6896 -116.93358,-33.9961 -33.68164,-28.3647 49.45735,-73.1736 -89.3831,-91.5742 -76.7461,-84.6426 -24.01098,-105.7756 -52.31324,-225.2712 -8.48828,-328.7168 46.60249,-47.7166 106.85563,-61.5642 33.49609,-5.7031 -4.58709,33.1737 -26.12997,67.4602 -4.75976,96.2383 -39.35889,68.1942 -46.15369,264.7992 85.20508,210.7539 63.98314,-19.5264 -11.83422,63.2686 46.48632,78.5351 67.0071,47.9323 92.28733,-83.9085 29.10352,-95.2441 -75.53033,18.8901 37.98787,-93.6256 -32.53516,-137.2832 -9.62912,-74.9001 -43.9039,-252.0063 -14.60547,-224.9082 12.0699,-6.9678 23.70268,-15.3129 37.58982,-18.3679 z m 2.96094,2.7754 c -1.9068,2.8799 3.43385,2.334 0,0 z m 1089.87109,0.3164 c 4.3836,-1.4311 0.4304,1.9277 0,0 z M 831,1694.5 c 3.53412,2.1367 -3.86301,1.5473 0,0 z m 583,5.5508 c -21.0395,23.3388 -31.8091,7.8282 0,0 z M 2116.5,1738 c 8.0825,-2.8198 0.7309,3.3011 0,0 z m -910.5,24.5664 c 24.3015,12.1517 14.9216,36.0175 0,0 z M 1033.8223,1774 c 17.5767,16.031 -4.2317,7.9642 0,0 z m 810.2148,5.6543 c 74.9856,10.9211 15.5828,15.8523 -5.4082,2.7363 z m -163.8711,24.4219 c -6.7067,2.8062 3.1061,5.3726 0,0 z m -425.873,5.3379 c 5.8181,8.896 -17.0497,15.7644 0,0 z m -268.11527,4.9765 c 13.44857,8.8753 2.39845,15.398 0,0 z M 1596.0586,1818 c 1.9068,2.8799 -3.4339,2.334 0,0 z m 79.7988,3.459 c 2.6925,6.7597 -6.0556,-0.029 0,0 z m 226.0684,0.3672 c 44.2087,15.5168 1.2377,16.369 0,0 z m 25.9394,21.0644 c 8.2722,7.2898 -11.0924,-0.6284 0,0 z m -335.1035,34.5371 c -12.3122,38.3753 -49.4962,35.543 0,0 z m -587.6933,10.17 c 11.1557,5.5872 7.1647,9.5779 0,0 z m 1121.0957,1.289 c -60.5111,6.9828 52.8641,66.3972 7.5634,89.7811 -6.3637,71.5851 60.4398,123.1058 83.8409,187.0978 -87.2362,-60.6149 15.7079,50.3737 -5.9417,62.3559 -66.0074,34.182 53.2326,139.1779 44.8518,205.3082 56.5697,167.5125 -86.1733,-106.9381 -48.9707,-33.1797 -36.3356,22.6093 -20.5813,-60.9673 -57.9766,-35.4271 8.6931,96.3955 44.9004,193.7587 105.2933,270.5739 10.0435,35.3938 18.1896,47.1994 30.0801,88.1035 27.9486,85.8307 92.7924,152.2581 134.0979,228.5101 84.0303,59.2093 -57.3311,-43.097 2.4746,-39.961 -10.2,-39.6673 -56.6512,-70.7038 -35.4746,-107.7011 -32.0441,-63.2672 -49.6373,-132.8445 -83.8496,-195.1309 24.4131,-11.506 15.2403,-160.8645 14.8496,-132.0137 4.1489,32.3484 47.6638,96.584 64.3613,53.7969 18.3694,1.0396 67.1449,78.2289 45.0274,7.9082 -19.7603,-44.9079 -37.4798,-96.5695 -65.6817,-132.4082 -12.0562,-101.5039 -66.6178,-190.8201 -100.0039,-285.8867 -50.492,-74.7376 -77.5608,-161.3886 -134.5415,-231.7272 z m -503.4434,3.4961 c 2.4074,6.7559 -7.7304,2.4113 0,0 z m -585.7363,12.127 c 3.5686,0.7847 -2.9459,3.0874 0,0 z m 1817.8281,0.8066 c 0.4307,1.928 4.3835,-1.4313 0,0 z m -1654.8789,0.3496 c 5.8219,1.5674 -2.1932,7.2908 0,0 z m -121.7793,4.6543 c 15.3554,55.4071 111.3926,59.5788 90.4492,115.7383 -16.8706,56.8685 -6.173,154.6304 -91.072,98.0391 -48.0093,-33.3343 -83.49429,-18.2459 -122.98237,-46.4473 -42.79936,3.4549 47.06817,50.774 31.9062,44.3475 50.75247,18.7607 101.54227,31.568 153.45897,46.566 24.2915,30.5339 104.6525,2.0049 156.5859,24.3789 76.5319,11.5454 152.8054,-1.1767 224.9609,-24.1521 21.5145,11.6453 22.5486,99.9944 78.1368,135.3242 30.5169,34.2903 65.2804,110.9806 119.6074,92.3672 49.1988,-14.3877 -30.6412,108.5191 -41.2051,77.4981 -12.4284,52.1481 -193.5508,74.724 -148.9707,57.33 -51.4183,14.5467 -112.9162,18.5626 -166.8789,35.0493 -63.4497,8.0254 -128.99,12.5163 -192.6367,-3.3813 -25.2828,-14.72 -129.4873,-32.3082 -189.15993,-40.0292 -61.92081,-15.2383 -112.97207,-39.8548 -171.30079,-64.2851 -100.45218,-34.7847 -2.9375,-134.7142 -41.61498,-194.9455 69.34138,-39.459 8.87002,61.612 39.01342,84.8185 -59.09973,21.2646 -3.27147,91.041 33.19334,95.4414 47.01062,12.1963 104.21096,56.9026 162.66594,67.5254 78.6852,38.2992 152.4186,-12.0899 231.8438,24.0548 87.2994,18.6951 176.4232,18.7633 251.3457,-24.4196 14.2184,-36.0945 79.7639,22.5724 98.8574,-40.1582 12.7986,-47.4326 37.3804,-33.9579 17.656,-106.8262 -9.47,-70.1493 -84.76,-111.8255 -146.7578,-130.7227 -75.4467,-38.9526 -134.1393,10.5725 -206.9629,29.1856 -23.4398,-51.0283 -98.6485,-42.1136 -142.293,-70.9336 -41.9875,-25.3175 -170.35205,-12.6416 -147.57419,-22.0391 -16.67466,-41.4713 -39.3773,-95.3182 -39.09958,-134.541 20.92433,-16.0183 44.56083,-48.0789 33.7734,-41.805 -40.40098,-66.7419 8.81531,0.3907 34.50586,-39.3949 34.57771,4.0755 60.07301,122.9443 77.89441,63.0953 -26.0244,-67.0109 -24.8804,-65.378 19.457,-10.25 35.5882,-14.1468 -24.0999,-49.8094 -13.4004,-90.0567 10.5399,24.5425 14.7702,28.1255 6.5977,-6.3721 z m 745.2871,10.541 c -2.4538,31.6161 -112.0686,97.0694 -13.6582,15.1387 5.3129,-4.0897 7.4935,-12.2976 13.6582,-15.1387 z m 29.0371,3.3262 c 10.1556,-1.5506 -0.027,12.9437 0,0 z m -61.666,6.1289 c 4.3836,-1.4311 0.4304,1.9277 0,0 z M 1081.4766,1940 c -8.6036,5.3481 9.4433,6.1711 0,0 z m 704.4648,4 c 3.4935,2.2658 -1.958,2.7471 0,0 z m -703.6269,5.2715 c -1.5352,18.8248 5.0278,2.63 0,0 z m -449.9688,8.0156 c -9.44204,40.9323 -31.66952,94.0348 5.2774,41.2129 25.15643,54.2208 -11.72667,108.5888 -20.35352,158.2363 25.58415,-25.4957 33.02762,-109.7137 49.30274,-26.0644 5.00943,42.428 30.70036,85.2718 53.42769,124.8281 4.60293,52.7089 25.74752,118.3263 4.62889,166.3943 36.93094,59.4541 -57.80835,113.4866 -66.36329,179.7989 2.3073,50.2538 18.16436,102.3511 -15.32226,149.8574 -21.80863,49.9379 -25.67039,167.2804 -28.17385,38.8574 57.97933,-42.8554 -45.22824,-63.3009 -27.34961,0.8262 -26.0381,13.6545 -40.88477,29.3114 -46.29883,63.3008 -48.46376,93.6072 -73.16242,199.2049 -85.26174,305.6406 10.98269,87.3588 -73.97929,-172.1037 -49.60814,-99.5027 -25.61965,-50.9093 -25.57517,-120.853 10.78391,-159.6067 -24.02373,-91.7757 31.9276,-169.702 55.19695,-253.8695 12.6373,-61.3687 17.36129,-128.4109 14.76766,-186.9489 16.52572,-23.6457 34.45254,-50.959 40.47266,-87.748 41.06568,-92.8965 90.06056,-197.6627 55.9278,-301.5 -4.39211,-42.8602 32.19772,-77.4824 48.94554,-113.7127 z m 1047.2168,1.7559 c -7.7818,55.2381 -79.6527,74.3775 -90.5625,125.5019 22.539,30.0823 -6.3932,79.1102 -58.1953,66.166 -63.3388,1.9506 -129.6532,32.3794 -192.8045,22.7891 -67.3302,1.0908 49.4997,-23.6083 31.6914,-22.5004 8.7999,-70.1898 91.4788,-31.0633 131.7073,-68.4863 61.4421,-38.0058 122.2516,-77.669 178.1636,-123.4703 z m -594.0859,5.1465 c -2.933,3.5499 5.5649,3.1956 0,0 z m 5.4101,20.5234 c 3.8986,0.8151 -3.5378,4.5345 0,0 z m -20.4648,17.6074 c -1.1133,6.7249 5.9122,0.6174 0,0 z m 914.3125,3.8184 c 0.2553,10.4457 12.8296,11.9757 0,0 z m -1176.47073,8.1347 c -1.90248,27.571 -20.70652,16.2267 0,0 z m 929.25003,1.8594 c -25.0551,28.675 -81.2159,119.5317 -14.8418,108.8672 22.2955,-14.0315 95.5064,-11.7732 68.3281,-5.3825 48.739,-90.4791 -22.3725,23.6954 26.4434,39.1292 55.3701,1.4257 56.9876,-68.188 84.8593,-102.582 33.2582,62.383 -15.7803,138.067 -63.6738,184.1621 -56.7619,30.1704 -91.4192,144.9509 -155.043,128.334 -44.8024,-49.497 -88.1562,-102.6053 -123.5996,-158.8497 -0.529,-55.8585 64.4154,90.7516 101.9356,2.7363 -13.8976,-68.8966 -91.4851,-64.1608 -0.1719,-118.8017 27.7086,-23.5411 46.7866,-55.3046 75.7637,-77.6129 z M 1653.0586,2017 c 1.8633,2.7521 -3.2241,1.6906 0,0 z M 1935,2033.7109 c 43.0274,11.3514 -10.2127,62.218 0,0 z M 757.07812,2040 c 16.27958,10.3037 -17.31614,15.0499 0,0 z m 1755.72268,2.8008 c 0.5653,3.8602 5.2249,-2.7295 0,0 z m -699.459,28.5234 c 8.3653,1.5546 -3.342,5.2401 0,0 z M 716,2090.5 c -3.65588,1.2104 3.56207,2.4655 0,0 z m 163.13672,5.5352 c 12.3452,21.2477 18.05275,61.5857 -16.89272,60.4746 -61.84622,-52.0553 9.09036,-40.5962 16.89272,-60.4746 z M 2290.5,2100.584 c -38.3806,-4.3984 98.0456,81.3937 76.9785,90.377 -20.0356,-40.3648 -46.0465,-57.6647 -76.9785,-90.3748 z m -1563.00195,42.1562 c 81.10053,32.0565 -35.00503,91.5935 0,0 z M 1271,2156.5 c -3.6559,1.2104 3.5621,2.4655 0,0 z m 5,5.5 c -3.5875,2.5549 3.5875,2.5549 0,0 z m 311.0625,2.918 c 11.3527,6.0828 -14.077,6.6459 0,0 z m 119.3145,4.373 c -3.0549,3.7845 5.571,2.8243 0,0 z m 23.1015,0.709 c -55.0137,-13.1988 -69.6286,44.2121 -59.1191,83.625 -11.2508,17.6018 22,146.0101 74.5644,60.5293 11.542,-31.9605 30.307,-95.7026 74.5176,-86.6231 38.1992,-6.6091 20.5478,-75.4275 -20.6465,-33.5312 -27.4424,11.168 -46.6307,-17.4182 -69.3164,-24 z m -772.03514,6.4766 c 1.80563,17.0107 -43.58042,31.8762 0,0 z M 1603.0508,2180 c 108.8286,24.1722 -40.1007,74.8093 0,0 z m 442.164,1.4512 c 3.9418,-1.2408 5.764,10.2476 0,0 z M 2354.3574,2184 c 12.8595,5.5888 -6.6393,4.0539 0,0 z m -442.5566,3.0547 c 41.9251,78.7008 -1.9895,157.7609 79.1347,219.0449 45.6766,65.0233 97.7854,133.8696 73.4083,216.2422 10.6318,62.3915 1.0802,177.008 -9.6879,73.4727 -2.6021,-48.4118 -80.7369,-88.7157 -80.6602,-147.5469 6.5894,-81.6624 -112.8603,-95.4535 -107,-142.4219 -15.7329,-47.0294 26.1402,-105.1702 20.9238,-146.3223 -29.2263,52.9976 -37.9861,186.0915 -36.4195,149.4766 -15.6982,-26.315 -49.4599,48.086 -54.4766,33.8594 22.366,55.8672 -20.4665,125.1715 -35.4682,189.6406 50.7374,19.2213 74.2673,-51.4607 98.1945,-88.3148 -13.5599,57.9535 -54.448,108.0864 -62.75,168.8145 -41.5002,48.8882 30.9261,87.1488 20.2225,18.115 40.6083,-61.4957 59.9144,-40.178 22.8281,20.6192 25.6084,36.6832 76.2242,25.5004 -1.2656,70.6523 -64.5035,76.9841 -199.3381,66.5348 -293.406,98.7996 -49.1781,30.4926 -158.0465,37.408 -191.9964,42.6125 3.8946,-40.0753 85.6365,0.9205 78.545,-42.9605 -39.6224,-9.6667 -109.4609,33.9341 -100.5545,31.1561 -20.2105,8.1056 -57.9134,-64.392 -102.371,-62.4316 2.1446,-11.2786 174.9401,-7.5307 240.7914,-17.7878 94.2428,-7.9559 203.177,9.9908 281.3628,-53.7751 44.2755,-64.1622 13.6992,-141.9532 -6.0679,-209.2864 -22.3983,-76.09 -21.6348,-126.3693 30.9137,-185.0398 38.2455,-68.6511 -26.0739,-66.0307 26.0742,-114.7148 40.145,-37.5341 76.8064,-77.9684 109.7248,-121.9037 z M 519,2193.5 c -6.16775,3.1175 6.16775,3.1175 0,0 z m 417.47461,1.5859 c 9.97349,39.78 -55.21264,12.8831 0,0 z m 1110.36919,0.01 c 18.43,47.4068 -3.7404,62.5394 0,0 z M 1004.5,2215.3613 c 16.5558,0.1378 -1.6384,8.4368 0,0 z m 38.0215,10.8907 c 113.006,18.7632 38.4562,45.9324 0.834,3.0703 -2.3469,-0.7557 -13.0271,-1.8509 -0.834,-3.0703 z m -419.56056,2.2246 c -65.86429,4.9919 -46.04141,92.4489 -75.68164,136.1386 -0.33984,55.8612 -6.34073,107.3613 -23.2793,160.8848 -12.70391,108.964 36.59267,-148.1932 43.25,-19.6504 -15.26447,76.0252 5.88062,123.5404 -9.88669,199.5527 83.14714,91.3238 60.65807,-275.9336 61.75983,-159.4007 0.72406,-71.8308 -42.14937,-146.3442 0.49804,-214.7637 3.93705,-33.3819 37.89261,-94.8016 3.33976,-102.7613 z M 871.45117,2258 c 5.09154,18.5662 -25.19254,14.1694 0,0 z m 4.49024,2 c 5.03467,1.8984 -3.62783,3.1053 0,0 z m 814.58399,0.1621 c 19.4286,1.6064 -0.8778,8.1472 0,0 z m -937.45118,2.0293 c 3.896,3.3726 -3.89289,3.3829 0,0 z M 663.83984,2273 c -27.33121,16.8196 -10.56746,151.5438 -27.04881,118.4258 46.1046,29.5775 -11.21233,-107.6293 32.59765,-111.1758 l -5.54883,-7.25 z m 1027.57426,12.2539 c 52.4721,9.7656 15.3697,87.8765 0,0 z m 152.1816,16.7813 c -43.1409,40.388 14.5203,48.4988 0,0 z M 1375.332,2304 c 11.4987,22.5411 -28.9581,0.1731 0,0 z m 619.0625,2.8477 c 37.1824,44.9253 -7.7915,35.9503 0,0 z m -807.0957,0.5195 c 20.6317,2.7576 0.3348,7.4424 0,0 z m 629.6016,8.9277 c -52.7618,81.6454 20.2234,30.9562 0,0 z M 807,2332 c 3.46028,1.8789 -3.68947,3.2772 0,0 z m 785.8828,0.5723 c 4.5012,3.7157 -0.1614,7.2558 0,0 z m -780.33788,7.8066 c 3.98519,4.4678 -10.01973,2.8074 0,0 z m 30.05664,10.7773 c 17.68422,24.8003 28.54312,63.124 -7.72095,73.4376 -68.06434,-156.8361 6.44068,42.2823 6.51592,-67.445 l 1.20508,-5.9922 z M 1603,2355.6289 c -0.6499,7.1317 5.1533,0.2179 0,0 z m 1,8.0039 c 1.2555,5.0645 3.699,-0.2673 0,0 z M 1109.5,2380 c 5.1627,0.5446 -4.769,4.9061 0,0 z m -386.05859,8 c -3.62783,3.1053 5.03467,1.8984 0,0 z m 100.86328,1.2363 c -6.32518,2.1647 0.27279,8.8094 0,0 z m 11.98047,3.8555 c 1.42457,4.8838 8.25616,1.0264 0,0 z M 1190.4473,2398 c 27.4723,22.2342 -12.5875,41.4495 0,0 z M 1072.5,2408.2227 c 31.3978,40.3413 -10.7667,44.5509 0,0 z m 450.1035,1.0488 c 2.8679,2.8911 -4.3626,2.3493 0,0 z m 337.2403,0.3242 c 5.7648,-0.2529 -1.1271,5.7731 0,0 z m -325.6485,21.2109 c 80.5081,23.9415 -40.1914,93.0572 -28.9453,19.3887 16.9897,3.6855 17.9635,-13.9706 28.9453,-19.3887 z m -357.2265,11.1192 c 91.4344,20.3905 -57.522,62.8908 0,0 z m 624.4472,4.3515 c 37.3226,23.0052 -16.0434,58.489 0,0 z M 493,2448 c 3.65313,3.9032 -3.65313,3.9032 0,0 z m -4.46484,16 c -11.74076,6.4908 3.53837,5.3182 0,0 z m 946.19534,12.3066 c 2.8991,19.4101 -43.7894,7.725 0,0 z m -648.82425,15.9063 c 51.23517,6.5469 -16.19691,42.184 4.13477,87.5409 27.96198,34.6952 -6.29828,60.3506 15.29097,96.9121 26.73065,68.5478 70.80132,-11.7607 93.13278,22.3347 52.46313,25.8265 112.62983,30.3535 169.67393,35.7209 23.4154,-9.1335 43.6035,67.9625 89.611,47.3768 62.1777,-48.5405 138.0236,-8.6152 205.6914,-32.6289 86.7304,-15.5198 139.3948,-33.4456 197.8398,23.9414 -77.7893,14.367 -156.695,21.2628 -235.455,18.9116 -82.5765,10.8131 -166.442,16.0485 -249.6996,9.672 -101.17183,-9.3921 -203.77502,-47.2282 -277.584,-118.6055 -48.76013,-56.8061 -40.20058,-129.1235 -12.63605,-191.176 z M 891.94141,2496 c 3.43385,2.334 -1.9068,2.8799 0,0 z m 1124.94729,27 c -6.2292,42.5339 33.3178,86.742 6.5117,6.2773 z m 298.3398,9.2695 c 5.5293,5.0843 -4.7242,4.5852 0,0 z M 1689.0879,2535 c -4.6008,68.8196 49.2193,145.4847 15.2421,209.4453 -59.0672,15.7162 -135.1579,62.8838 -94.3203,-19.9453 19.4946,-39.229 62.3422,-114.1715 58.494,-181.75 6.419,-3.8215 13.9035,-4.6688 20.5842,-7.75 z m 670.4121,7 c 5.1627,0.5446 -4.769,4.9061 0,0 z m -1437.45703,2.4746 c 43.0288,-1.3953 -6.61079,17.1236 0,0 z M 2375,2545.5 c -3.7038,2.5639 3.5852,3.8436 0,0 z m -1178,9.5 c -3.5875,2.5549 3.5875,2.5549 0,0 z m 1382.6328,1 c 5.3231,2.6637 -8.3587,5.2949 0,0 z m -1194.3008,1.1758 c 5.4732,0.5536 -4.2753,6.101 0,0 z m 163.3809,19.3359 c -29.0282,37.1378 -29.2126,-2.2115 0,0 z M 75.9375,2597.1875 c -5.583052,3.1355 3.64622,3.3059 0,0 z M 2608.623,2603 c 7.9532,5.1112 -14.568,5.909 0,0 z m -48.5781,11.6387 c 2.2728,-1.0556 2.5443,5.5296 0,0 z M 1796.9414,2628 c 3.4339,2.334 -1.9068,2.8799 0,0 z m -976.52148,14 c 55.9509,-11.3763 46.53691,76.9367 2.14844,18.5664 -6.31025,-5.0879 -5.2998,-13.1725 -2.14844,-18.5664 z m -296.36133,5 c 2.20307,41.9669 -14.49313,106.7538 -34.1875,149.75 41.39631,-25.9554 54.74989,-105.9284 34.1875,-149.75 z m 2102.82421,15 c -2.4218,2.9359 6.6016,9.6717 0,0 z m -695.75,18.0703 c 3.7865,6.3217 -5.1905,2.93 0,0 z M 860.09375,2683 c 4.14527,5.9776 -7.794,4.0989 0,0 z m 1495.99805,4 c 5.3469,46.3381 50.7091,93.7337 17.9394,20.2109 l -7.4355,-12.8047 z m -429.0332,3 c 1.9068,2.8799 -3.4339,2.334 0,0 z m -788.3359,19.3125 c 57.42,6.5093 16.6686,95.7152 -24.6973,33.2773 3.7981,-4.4502 10.4335,-27.541 24.6973,-33.2773 z M 2645,2711.5 c -3.6559,1.2104 3.5621,2.4655 0,0 z m -1096.7227,2.625 c 86.8178,13.3569 -8.6132,74.5476 -17.1858,11.5508 5.6419,-3.9735 11.657,-7.4126 17.1858,-11.5508 z m 969.6055,2.875 c -1.7268,3.4696 4.6676,1.6509 0,0 z m -1755.60546,1.0352 c 19.77948,10.3633 54.46318,48.0642 72.3125,62.289 -28.02286,48.1255 33.40393,85.0192 1.86719,118.7715 -77.37336,11.4648 -90.04647,-112.474 -74.72265,-178.3948 l 0.50585,-2.6387 0.0371,-0.027 z M 643.5,2720.6387 c -5.24708,2.374 5.28223,0.864 0,0 z M 2648.9062,2723 c -5.5099,9.8733 20.4315,11.2686 0,0 z m -1585.5234,7 c 15.3227,2.5949 -13.6444,2.2177 0,0 z m 931.8692,2.0879 c 13.5444,49.753 -10.1666,21.0294 0,0 z M 1581,2736 c -4.7836,16.0811 4.1125,3.1688 0,0 z m -448.8828,0.5488 c -1.5748,10.4533 8.3373,-0.2133 0,0 z M 1963.1816,2741 c -3.7814,50.9825 -35.9207,56.3284 0,0 z m -400.0332,0.096 c -4.9855,6.7155 6.7132,0.7198 0,0 z m 1093.6817,3.6602 c 3.4529,30.9204 24.4437,17.525 0,0 z m -89.5918,17.5761 c 40.6875,53.6485 33.5352,125.1789 72.5058,179.9239 -32.5691,-27.2427 -76.4497,-64.8679 -78.5234,-106.041 -15.8783,-24.8772 6.7008,-37.1105 4.7402,-73.2227 l 1.2774,-0.668 z m -1784.83205,7.7032 c -5.68316,4.3195 6.17656,2.6761 0,0 z M 1566.8828,2772 c 4.6676,1.6509 -1.7268,3.4696 0,0 z m 14.0586,0 c 6.7861,1.7778 -5.4068,3.0908 0,0 z m 632.459,0.2676 c -2.2504,3.0764 5.0159,2.1306 0,0 z m -1641.90821,0.6679 c -40.0055,33.2176 -126.59187,144.813 -114.99805,161.5352 34.76693,-56.9625 79.37189,-113.4451 123.4668,-158.2285 l -4.42188,-2.4824 z M 2668.8652,2774 c -1.7295,8.8529 18.541,6.7075 0,0 z m -1879.5234,2.6758 c -9.29774,2.9648 4.34439,4.0241 0,0 z m 1877.75,2.3203 c -30.2862,32.1146 11.7513,10.4871 0,0 z m -1838.13477,3.5293 c 12.15423,6.7774 1.24169,10.8739 0,0 z M 2643.0586,2788 c -6.8651,5.0591 4.6864,2.8066 0,0 z m 36.5234,0 c -8.3189,14.0716 24.4967,8.782 0,0 z m -1537.9843,2.5996 c 0.3312,7.2768 15.6296,3.1867 0,0 z M 2665.9414,2796 c -5.4068,3.0908 6.7861,1.7778 0,0 z m 9.5586,0 c -7.7451,4.6856 8.7862,1.5858 0,0 z m -2059.21289,4.7344 c -7.26341,10.5231 8.78331,8.5781 0,0 z m 1776.15039,0.6523 c 12.8965,71.5307 95.5446,120.0662 15.5625,26.0156 -5.3126,-8.3777 -4.8524,-21.6475 -15.5625,-26.0156 z M 2570.8027,2804 c 13.2524,41.7637 30.5016,22.2743 0,0 z m -578.9589,8.9023 c 39.7756,63.4448 -35.1245,95.132 -79.844,115.5625 -58.3918,41.3976 -126.7772,80.9876 -200.4043,96.0332 -80.7575,24.6995 -167.0787,18.0845 -246.1074,51.8496 -53.5288,40.4903 -128.8364,-65.2336 -33.6699,-67.8496 74.4769,-22.1657 149.7711,-41.4563 225.6816,-57.4805 100.2636,-23.8682 199.9069,-50.9407 292,-97.4746 35.98,13.7327 17.9815,-31.8914 42.344,-40.6406 z M 872.75586,2828 c 5.63394,2.0987 0.0399,4.5313 0,0 z M 881,2832.834 c 9.26658,-4.5756 1.97336,5.6652 0,0 z m 38.25,9.584 c 25.30502,-0.7155 4.31702,33.5111 0,0 z M 829.55859,2846 c -5.03467,1.8984 3.62783,3.1053 0,0 z m 1258.18751,1.1836 c 30.8585,13.6729 46.1508,160.1743 30.0605,89.8164 -10.9644,-28.487 -33.0286,-58.7953 -30.0605,-89.8164 z m -990.8613,3.6797 c -8.5998,24.6812 -42.3293,1.1133 0,0 z m -27.5391,6.791 c 3.8869,1.1 -2.9413,2.8124 0,0 z M 79.058594,2858 c -3.433856,2.334 1.906784,2.8799 0,0 z m 627.736326,2.2383 c 11.78821,34.8647 17.29674,222.7502 0.77539,97.4746 1.4211,-29.3315 -6.22401,-65.5025 -0.77539,-97.4746 z M 929.3457,2862 c 16.31595,19.1842 -6.32204,2.4693 0,0 z m 43.1543,2 c 5.29078,4.4563 -4.91764,2.9438 0,0 z m 1372.6543,3.0391 c 0.9897,26.978 65.4453,117.6994 52.596,88.5307 51.6563,86.8918 5.1098,-17.9567 -22.75,-47.9492 -9.1875,-13.9808 -18.4064,-28.2675 -29.846,-40.5815 z m -679.5742,0.1699 c -21.4341,28.5946 22.0278,5.5285 0,0 z M 976.63086,2868 c 117.35424,9.9816 -118.47519,65.1698 -20.13086,7.8281 5.75709,-4.2813 15.4642,-2.1678 20.13086,-7.8281 z m 1008.94144,7.3926 c -5.5752,6.2072 10.918,2.5498 0,0 z m -882.3106,7.4394 c 88.3469,5.4657 194.6113,42.6827 221.8423,136.4937 93.0603,48.2972 85.7392,161.4645 21.6094,229.6738 -85.7743,99.5096 -266.1355,126.974 -350.2129,11.3593 27.6834,4.9729 108.8496,54.9794 163.5,43.6016 82.0378,-16.8755 200.6797,-44.9936 197.1602,-150.6799 1.2527,-77.7345 -36.5212,-163.6564 -98.9981,-207.6016 -103.7184,-29.3058 -221.7482,-17.7841 -319.56249,8.3184 -60.49167,45.0177 -19.58365,132.9218 -0.0898,191.127 22.82246,69.3265 -12.58374,-171.1147 -35.75782,-132.879 -16.19608,-82.3954 84.85858,-94.9247 142.24801,-119.25 19.1803,-4.6465 38.0256,-12.1173 58.2612,-10.1633 z m 130.0625,1.5098 c -1.7223,5.0135 12.8164,0.1468 0,0 z m 420.5528,0.2031 c -3.7086,-1.1331 -6.2295,9.9898 0,0 z m -410.627,4.2012 c -2.3575,6.5266 13.0023,-0.3792 0,0 z M 575.42578,2889 c 35.51286,28.1852 77.50736,108.1112 7.57422,60 -51.18792,7.8463 -37.87312,3.5678 -7.57422,-60 z m 682.07812,3 c -13.9447,4.4777 3.8281,5.3708 0,0 z m 1410.4375,4 c -1.9068,2.8799 3.4339,2.334 0,0 z m -1401.0586,2.1504 c -1.8445,10.652 16.5594,7.7989 0,0 z M 2310.8008,2903 c -5.1844,8.0437 10.967,3.1244 0,0 z m 361.8672,0.1758 c -5.4732,0.5536 4.2753,6.101 0,0 z m -665.5645,0.2734 c 8.838,7.9501 -1.1373,13.9419 0,0 z M 1097.8457,2907 c -12.5827,16.3591 15.9513,12.8122 0,0 z m 178.9668,0.3164 c 0.4307,1.928 4.3835,-1.4313 0,0 z M 2183.4414,2913 c 5.0347,1.8984 -3.6278,3.1054 0,0 z m -1151.668,0.01 c -27.237,14.8021 12.935,9.3812 0,0 z m 38.7774,1.9512 c -6.4563,8.5419 10.7305,-0.2053 0,0 z m -32.0645,0.3906 c 16.7235,10.0596 16.667,-3.3239 0,0 z M 1019.3926,2917 c -5.2615,4.3133 6.5904,3.281 0,0 z m 1550.8984,0 c 25.0759,15.3814 -3.0503,12.1851 0,0 z m -1561.789,2.1211 c -110.70525,33.888 -15.97566,25.6279 0,0 z m -3.6094,2.8789 c 6.5784,6.189 -4.3728,2.5578 0,0 z m 976.5547,1.1797 c 6.0362,75.8263 -78.8969,130.9687 -120.0313,190.7988 -95.7661,18.4325 -170.9461,110.1451 -276.578,101.9176 -72.8783,7.4566 -249.8945,25.3149 -146.1915,-88.0637 92.8238,-5.438 178.3671,-48.5726 273.7383,-44.4375 70.0781,-21.3286 134.7794,-52.1608 199.8886,-87.3515 28.7239,-18.2892 46.125,-49.8354 69.1739,-72.8637 z m -775.7989,1.0195 c -3.0235,10.4888 16.8418,12.9995 0,0 z m -733.34176,9.834 c -34.38132,49.1439 -23.71721,121.9232 0.61524,17.9609 3.73379,-3.3533 11.63944,-16.2615 -0.61524,-17.9609 z m 1489.20896,2.5606 c 4.0284,12.5657 -12.599,-1.4919 0,0 z M 1428,2938 c -3.5875,2.5549 3.5875,2.5549 0,0 z m 523.1172,7 c 1.7268,3.4696 -4.6676,1.6509 0,0 z m -831.6172,5.5117 c 109.3542,-21.4843 200.5362,61.5298 207.9629,169.5625 30.3621,90.8104 -54.4407,89.1387 -108.4024,57.4319 -61.7034,-9.4263 -100.9922,-69.1628 -157.1464,-54.4687 -73.04987,71.0914 -122.25444,10.264 -127.08207,-71.5352 -35.156,-114.5929 117.35127,-92.5245 184.66797,-100.9905 z m -566.55078,0.6817 c -3.90246,2.7679 8.61258,0.3393 0,0 z m 1386.91598,0.8007 h 4.0469 z m 245.918,0 c 24.4155,4.7148 2.7178,54.8136 0,0 z m -1526.0625,3.1055 c 19.70816,22.1189 -18.09531,13.6214 0,0 z m 160.41016,0.6738 c 109.93096,26.4803 24.61297,31.6799 0,0 z m 1762.37894,1.9707 c -4.8327,4.3834 4.8116,4.0566 0,0 z M 691,2975 c 3.58745,2.5549 -3.58745,2.5549 0,0 z m 645.9414,0 c 3.4339,2.334 -1.9068,2.8799 0,0 z m -356.15624,12 c -77.65006,12.8236 -38.93816,136.3529 30.12694,133.3711 66.2661,-35.1415 111.9286,-44.0377 175.0879,6.5039 74.2744,21.0801 115.2516,-46.6413 68.4902,-103.5723 -31.6012,-78.6743 -171.5736,53.1083 -127.6855,46.5977 -15.4606,-36.8177 -51.9593,-128.8422 -51.0176,-24.7422 -16.5855,-2.7614 -54.3967,-59.4928 -95.00194,-58.1582 z m 1018.52934,0 c 5.5761,14.9577 -14.5694,5.9324 0,0 z m -1252.17583,3.4141 c 28.0908,32.8107 171.56168,39.96 110.86133,86.789 -56.30528,5.3918 -136.50617,-9.4323 -110.86133,-86.789 z M 1977.3535,3013 c 67.2339,72.1135 -57.7991,146.7911 -104.2383,190 -78.2677,58.5891 -171.7627,114.2682 -272.4746,103 -48.3172,-15.954 -241.7359,-25.0331 -196.6406,-85.7227 52.6109,48.5171 135.3951,67.3769 214,46.1875 64.6926,-5.498 129.5835,-31.4197 181.2578,-69.3027 62.8133,-31.5541 57.0341,-64.2015 57.9492,-57.084 54.3609,-21.7055 85.7867,-82.4821 120.1465,-127.0781 z m -1261.52928,5.1816 c 6.407,2.4786 -8.94677,2.3143 0,0 z M 1209.0977,3027 c 5.7499,5.9836 -12.7655,11.4518 0,0 z m -755.17973,7 c -14.25299,35.6512 41.6101,54.017 0,0 z m 1913.85353,32.2227 c 28.5009,29.0753 20.7835,29.5848 0,0 z M 759.25,3082.4785 c 45.73213,28.4309 123.15577,-11.2083 136.3418,52.1856 -19.66034,48.6827 -141.73344,40.8633 -139.21289,-45.3438 l -0.96561,-5.8711 z M 1210,3089 c 3.6531,3.9032 -3.6531,3.9032 0,0 z m 802.5586,4 c 1.9068,2.8799 -3.4339,2.334 0,0 z m -1134.48438,9.7246 c -0.3083,3.3919 -4.30649,-1.665 0,0 z m 107.58789,18.0254 c -1.74864,0.9996 1.62182,5.5069 0,0 z m 879.88479,20.4648 c -9.9697,0.4289 1.9289,8.5523 0,0 z m -761.291,10.4414 c 95.8831,10.7315 56.1287,128.3548 8.7441,25.0469 3.9915,-7.5992 -16.2635,-17.9654 -8.7441,-25.0469 z m -44.6543,10.5918 c 27.3453,94.4254 -82.64902,24.005 -16.4336,2.2071 l 14.1328,-2.0645 z m 1120.33,1.752 c 11.3939,6.682 -7.8501,7.1927 0,0 z m -1272.24215,5.6016 c -31.74281,3.8671 -106.35055,42.2518 -48.93945,67.25 -114.054,-9.4422 -34.22727,-83.0454 48.93945,-67.25 z M 1083,3173 c 3.6531,3.9032 -3.6531,3.9032 0,0 z m 4,5.6719 c 12.0937,-6.0133 3.2011,13.0349 0,0 z m 10.3789,13.9199 c 32.9623,44.4109 5.9249,49.6619 0,0 z M 962.60742,3197 c 6.04064,4.805 -9.12224,6.1857 0,0 z m 264.28318,6.1465 c 45.0669,4.4685 13.2666,40.7983 0,0 z m -259.60154,3.9004 c 24.59057,22.3367 -1.53815,28.6914 0,0 z m 42.89254,8.0527 c 44.363,25.6434 104.1201,48.7385 20.8184,31.5643 l -14.9062,-18.1641 -5.9122,-13.4004 z m 273.7989,4.3633 c 76.775,-6.6457 -77.4407,39.3259 0,0 z m -345.49808,4.3047 c -16.40952,15.2261 -37.24371,-1.7132 0,0 z M 1177.4512,3242 c 10.9379,6.2987 -9.438,5.3021 0,0 z m 60.7304,5 c 6.31,2.2128 -12.595,6.183 0,0 z m -245.24019,2 c 3.43385,2.334 -1.9068,2.8799 0,0 z m 147.22069,3.1836 c 25.6942,5.5014 -7.4632,16.4846 0,0 z m -56.4414,17.6055 c 5.0606,8.1596 -8.4619,-0.4304 0,0 z m -554.91992,28.2754 c 1.34259,5.6042 -3.63398,3.5329 0,0 z M 1365.5586,3308 c -3.4339,2.334 1.9068,2.8799 0,0 z m 8.2148,2.8633 c -2.0474,6.9924 9.2874,1.6435 0,0 z m -530.32418,1.4062 c -0.79553,5.0661 5.21183,0.5023 0,0 z M 1369.5,3319 c -4.8258,4.4558 5.467,1.4951 0,0 z m -267.6875,5.3164 c 0.4307,1.928 4.3835,-1.4313 0,0 z m 11.8555,0.1055 c -6.0681,-0.5908 -0.133,4.7646 0,0 z m 17.1445,1.8945 c 0.4307,1.928 4.3835,-1.4313 0,0 z m 7.9961,0.6992 c -7.0864,2.0916 9.1881,1.3143 0,0 z" />
  </g>
</svg>
