<?xml version="1.0" encoding="UTF-8" standalone="no"?>
<!-- Created with Inkscape (http://www.inkscape.org/) -->

<svg
   style="enable-background:new"
   id="svg823"
   version="1.1"
   viewBox="0 0 133.35 120.65"
   height="4.75in"
   width="5.25in"
   sodipodi:docname="ranger_portrait.svg"
   inkscape:version="1.4 (e7c3feb100, 2024-10-09)"
   xmlns:inkscape="http://www.inkscape.org/namespaces/inkscape"
   xmlns:sodipodi="http://sodipodi.sourceforge.net/DTD/sodipodi-0.dtd"
   xmlns:xlink="http://www.w3.org/1999/xlink"
   xmlns="http://www.w3.org/2000/svg"
   xmlns:svg="http://www.w3.org/2000/svg"
   xmlns:rdf="http://www.w3.org/1999/02/22-rdf-syntax-ns#"
   xmlns:cc="http://creativecommons.org/ns#"
   xmlns:dc="http://purl.org/dc/elements/1.1/">
  <sodipodi:namedview
     id="namedview95"
     pagecolor="#ffffff"
     bordercolor="#666666"
     borderopacity="1.0"
     inkscape:pageshadow="2"
     inkscape:pageopacity="0.0"
     inkscape:pagecheckerboard="0"
     inkscape:document-units="in"
     showgrid="false"
     inkscape:zoom="1.5573185"
     inkscape:cx="238.87214"
     inkscape:cy="255.88857"
     inkscape:window-width="3440"
     inkscape:window-height="1440"
     inkscape:window-x="0"
     inkscape:window-y="0"
     inkscape:window-maximized="1"
     inkscape:current-layer="layer5"
     inkscape:snap-bbox="true"
     inkscape:bbox-paths="true"
     inkscape:bbox-nodes="true"
     inkscape:snap-bbox-edge-midpoints="true"
     inkscape:snap-bbox-midpoints="true"
     inkscape:object-paths="true"
     inkscape:snap-intersection-paths="true"
     inkscape:snap-smooth-nodes="true"
     inkscape:snap-midpoints="true"
     inkscape:snap-object-midpoints="true"
     inkscape:snap-center="true"
     inkscape:showpageshadow="2"
     inkscape:deskcolor="#d1d1d1" />
  <defs
     id="defs817">
    <color-profile
       name="Artifex-PS-CMYK-Profile"
       xlink:href="/usr/share/color/icc/ghostscript/ps_cmyk.icc"
       id="color-profile2" />
    <filter
       style="color-interpolation-filters:sRGB"
       id="filter9828"
       x="-0.017529333"
       y="-0.020052187"
       width="1.0351197"
       height="1.0401051">
      <feTurbulence
         type="fractalNoise"
         numOctaves="2"
         seed="271"
         baseFrequency="0.3449 0.3449"
         result="turbulence"
         id="feTurbulence9824" />
      <feDisplacementMap
         in="SourceGraphic"
         in2="turbulence"
         scale="0.5"
         yChannelSelector="G"
         xChannelSelector="R"
         id="feDisplacementMap9826" />
    </filter>
    <filter
       style="color-interpolation-filters:sRGB"
       id="filter9834"
       x="-0.017034493"
       y="-0.019669211"
       width="1.0340689"
       height="1.0393404">
      <feTurbulence
         type="fractalNoise"
         numOctaves="2"
         seed="271"
         baseFrequency="0.3449 0.3449"
         result="turbulence"
         id="feTurbulence9830" />
      <feDisplacementMap
         in="SourceGraphic"
         in2="turbulence"
         scale="0.5"
         yChannelSelector="G"
         xChannelSelector="R"
         id="feDisplacementMap9832" />
    </filter>
    <filter
       style="color-interpolation-filters:sRGB"
       id="filter9868">
      <feTurbulence
         type="fractalNoise"
         numOctaves="2"
         seed="271"
         baseFrequency="0.3449 0.3449"
         result="turbulence"
         id="feTurbulence9864" />
      <feDisplacementMap
         in="SourceGraphic"
         in2="turbulence"
         scale="0.5"
         yChannelSelector="G"
         xChannelSelector="R"
         id="feDisplacementMap9866" />
    </filter>
    <filter
       style="color-interpolation-filters:sRGB"
       id="filter9868-3">
      <feTurbulence
         type="fractalNoise"
         numOctaves="2"
         seed="271"
         baseFrequency="0.3449 0.3449"
         result="turbulence"
         id="feTurbulence9864-6" />
      <feDisplacementMap
         in="SourceGraphic"
         in2="turbulence"
         scale="0.5"
         yChannelSelector="G"
         xChannelSelector="R"
         id="feDisplacementMap9866-7" />
    </filter>
    <filter
       style="color-interpolation-filters:sRGB"
       id="filter9868-3-5"
       x="0"
       y="0"
       width="1"
       height="1">
      <feTurbulence
         type="fractalNoise"
         numOctaves="2"
         seed="271"
         baseFrequency="0.3449 0.3449"
         result="turbulence"
         id="feTurbulence9864-6-3" />
      <feDisplacementMap
         in="SourceGraphic"
         in2="turbulence"
         scale="0.5"
         yChannelSelector="G"
         xChannelSelector="R"
         id="feDisplacementMap9866-7-5" />
    </filter>
    <filter
       style="color-interpolation-filters:sRGB"
       id="filter9828-6"
       x="-0.0084256865"
       y="-0.0096254153"
       width="1.0168816"
       height="1.0192508">
      <feTurbulence
         type="fractalNoise"
         numOctaves="2"
         seed="271"
         baseFrequency="0.3449 0.3449"
         result="turbulence"
         id="feTurbulence9824-2" />
      <feDisplacementMap
         in="SourceGraphic"
         in2="turbulence"
         scale="0.5"
         yChannelSelector="G"
         xChannelSelector="R"
         id="feDisplacementMap9826-9" />
    </filter>
    <filter
       style="color-interpolation-filters:sRGB"
       id="filter9868-3-5-2"
       x="-0.031146044"
       y="-0.027685132"
       width="1.0622921"
       height="1.0553637">
      <feTurbulence
         type="fractalNoise"
         numOctaves="2"
         seed="271"
         baseFrequency="0.3449 0.3449"
         result="turbulence"
         id="feTurbulence9864-6-3-7" />
      <feDisplacementMap
         in="SourceGraphic"
         in2="turbulence"
         scale="0.5"
         yChannelSelector="G"
         xChannelSelector="R"
         id="feDisplacementMap9866-7-5-0" />
    </filter>
    <filter
       style="color-interpolation-filters:sRGB"
       id="filter31379"
       x="0"
       y="0"
       width="1"
       height="1">
      <feTurbulence
         type="fractalNoise"
         numOctaves="2"
         seed="271"
         baseFrequency="0.3449 0.3449"
         result="turbulence"
         id="feTurbulence31375" />
      <feDisplacementMap
         in="SourceGraphic"
         in2="turbulence"
         scale="0.5"
         yChannelSelector="G"
         xChannelSelector="R"
         id="feDisplacementMap31377" />
    </filter>
    <filter
       style="color-interpolation-filters:sRGB"
       id="filter31385"
       x="0"
       y="0"
       width="1"
       height="1">
      <feTurbulence
         type="fractalNoise"
         numOctaves="2"
         seed="271"
         baseFrequency="0.3449 0.3449"
         result="turbulence"
         id="feTurbulence31381" />
      <feDisplacementMap
         in="SourceGraphic"
         in2="turbulence"
         scale="0.5"
         yChannelSelector="G"
         xChannelSelector="R"
         id="feDisplacementMap31383" />
    </filter>
    <filter
       style="color-interpolation-filters:sRGB"
       id="filter31379-1"
       x="0"
       y="0"
       width="1"
       height="1">
      <feTurbulence
         type="fractalNoise"
         numOctaves="2"
         seed="271"
         baseFrequency="0.3449 0.3449"
         result="turbulence"
         id="feTurbulence31375-1" />
      <feDisplacementMap
         in="SourceGraphic"
         in2="turbulence"
         scale="0.5"
         yChannelSelector="G"
         xChannelSelector="R"
         id="feDisplacementMap31377-1" />
    </filter>
    <filter
       style="color-interpolation-filters:sRGB"
       id="filter16824">
      <feColorMatrix
         type="hueRotate"
         values="180"
         result="color1"
         id="feColorMatrix16820" />
      <feColorMatrix
         values="-1 0 0 0 1 0 -1 0 0 1 0 0 -1 0 1 -0.21 -0.72 -0.07 2 0 "
         result="color2"
         id="feColorMatrix16822" />
    </filter>
    <filter
       style="color-interpolation-filters:sRGB"
       id="filter31379-3"
       x="0"
       y="0"
       width="1"
       height="1">
      <feTurbulence
         type="fractalNoise"
         numOctaves="2"
         seed="271"
         baseFrequency="0.3449 0.3449"
         result="turbulence"
         id="feTurbulence31375-6" />
      <feDisplacementMap
         in="SourceGraphic"
         in2="turbulence"
         scale="0.5"
         yChannelSelector="G"
         xChannelSelector="R"
         id="feDisplacementMap31377-7" />
    </filter>
    <filter
       style="color-interpolation-filters:sRGB"
       id="filter31379-2"
       x="0"
       y="0"
       width="1"
       height="1">
      <feTurbulence
         type="fractalNoise"
         numOctaves="2"
         seed="271"
         baseFrequency="0.3449 0.3449"
         result="turbulence"
         id="feTurbulence31375-9" />
      <feDisplacementMap
         in="SourceGraphic"
         in2="turbulence"
         scale="0.5"
         yChannelSelector="G"
         xChannelSelector="R"
         id="feDisplacementMap31377-12" />
    </filter>
    <filter
       style="color-interpolation-filters:sRGB"
       id="filter31379-2-3"
       x="0"
       y="0"
       width="1"
       height="1">
      <feTurbulence
         type="fractalNoise"
         numOctaves="2"
         seed="271"
         baseFrequency="0.3449 0.3449"
         result="turbulence"
         id="feTurbulence31375-9-8" />
      <feDisplacementMap
         in="SourceGraphic"
         in2="turbulence"
         scale="0.5"
         yChannelSelector="G"
         xChannelSelector="R"
         id="feDisplacementMap31377-12-6" />
    </filter>
    <filter
       style="color-interpolation-filters:sRGB"
       id="filter31379-2-8">
      <feTurbulence
         type="fractalNoise"
         numOctaves="2"
         seed="271"
         baseFrequency="0.3449 0.3449"
         result="turbulence"
         id="feTurbulence31375-9-4" />
      <feDisplacementMap
         in="SourceGraphic"
         in2="turbulence"
         scale="0.5"
         yChannelSelector="G"
         xChannelSelector="R"
         id="feDisplacementMap31377-12-5" />
    </filter>
    <filter
       style="color-interpolation-filters:sRGB"
       id="filter31379-2-8-9">
      <feTurbulence
         type="fractalNoise"
         numOctaves="2"
         seed="271"
         baseFrequency="0.3449 0.3449"
         result="turbulence"
         id="feTurbulence31375-9-4-6" />
      <feDisplacementMap
         in="SourceGraphic"
         in2="turbulence"
         scale="0.5"
         yChannelSelector="G"
         xChannelSelector="R"
         id="feDisplacementMap31377-12-5-2" />
    </filter>
    <filter
       style="color-interpolation-filters:sRGB"
       id="filter31379-2-8-9-7"
       x="0"
       y="0"
       width="1"
       height="1">
      <feTurbulence
         type="fractalNoise"
         numOctaves="2"
         seed="271"
         baseFrequency="0.3449 0.3449"
         result="turbulence"
         id="feTurbulence31375-9-4-6-8" />
      <feDisplacementMap
         in="SourceGraphic"
         in2="turbulence"
         scale="0.5"
         yChannelSelector="G"
         xChannelSelector="R"
         id="feDisplacementMap31377-12-5-2-9" />
    </filter>
  </defs>
  <metadata
     id="metadata820">
    <rdf:RDF>
      <cc:Work
         rdf:about="">
        <dc:format>image/svg+xml</dc:format>
        <dc:type
           rdf:resource="http://purl.org/dc/dcmitype/StillImage" />
      </cc:Work>
    </rdf:RDF>
  </metadata>
  <g
     id="layer1"
     transform="translate(0,-17.6)"
     style="display:inline" />
  <g
     id="layer2"
     style="display:none"
     transform="translate(0,63.5)" />
  <g
     id="layer3"
     transform="translate(0,63.5)"
     style="display:none" />
  <g
     id="layer4"
     transform="translate(0,63.5)"
     style="display:none" />
  <g
     id="layer5"
     transform="translate(0,63.5)"
     style="display:inline">
    <g
       transform="matrix(1.1126325,0,0,1.1126325,-183.62871,-84.704855)"
       id="text1372-1-5"
       style="font-style:normal;font-variant:normal;font-weight:normal;font-stretch:normal;font-size:23.8551px;line-height:1.25;font-family:'Gothik Steel';-inkscape-font-specification:'Gothik Steel';letter-spacing:-0.264583px;word-spacing:0px;display:inline;fill:#502a83;fill-opacity:1;stroke:none;stroke-width:0.596378;enable-background:new"
       aria-label="For Glory" />
    <path
       id="path2"
       style="fill:#000000;stroke-width:0.264582"
       d="m 70.018259,-62.614324 c -3.102736,1.209359 4.722467,4.70067 -0.943288,2.794645 -2.139085,-1.771941 -3.222701,0.969631 -5.306526,2.297167 -2.039324,1.343811 -3.954345,2.784534 -6.032434,3.929692 -2.221843,1.803849 -5.253569,2.282999 -6.714692,5.117212 -1.894419,2.460474 -2.64694,5.749192 -3.165982,8.80546 -1.36847,5.725989 -1.957757,11.66878 -3.373282,17.408066 -0.176372,2.346519 0.57912,4.297583 0.735841,6.624972 0.300357,1.312455 3.577652,3.156208 2.169694,3.875093 -2.151409,1.616366 -4.91392,2.1626475 -7.067223,3.7767466 -1.032227,1.6312879 -1.620215,3.5571546 -1.388213,5.6148502 -2.690901,-1.1672855 -1.716956,3.976687 -3.476488,5.2827749 -0.961787,3.1630162 0.64907,6.5721919 -0.940787,9.7489953 -1.013954,3.740869 -2.999133,7.049226 -4.269894,10.659754 2.352765,1.796042 0.174705,5.28697 -1.07712,7.792864 -0.939899,2.69874 0.237289,5.505835 0.01072,8.27477 -0.955268,3.122168 0.700893,6.335298 1.810307,9.219527 0.908665,2.234208 1.79087,4.561702 2.861961,6.663549 3.408879,-0.273217 0.667392,-5.640477 1.065048,-8.34997 -0.484708,-3.544954 0.833917,-7.471221 3.216409,-2.507567 0.278971,2.184218 2.580182,2.780092 3.164879,1.227492 1.528805,0.506119 2.187478,2.978488 2.995719,4.634728 1.098494,1.332187 0.355833,3.99955 2.293508,4.340505 2.469213,-0.587326 5.668273,-1.86601 7.073192,1.170686 3.974376,2.180719 9.053939,1.442476 12.347466,-1.815393 2.403939,1.59354 5.482599,1.444014 7.892218,3.123387 3.047543,0.0538 6.086016,0.423853 8.729873,-1.862933 3.136544,-1.980957 5.862255,-4.612877 8.915821,-6.765217 1.817158,-1.542599 1.44861,-6.79873 2.157329,-5.534201 0.509685,2.580458 2.447535,3.999206 3.029005,6.202966 1.24146,1.367207 2.58057,-0.802837 0.9742,-2.402566 1.91097,0.869146 0.13798,-2.938473 0.9823,-4.916414 0.83866,2.39569 2.43875,4.587488 4.98712,4.965216 0.93721,0.318643 3.32756,0.714314 4.59064,2.248352 1.99868,1.851898 2.82726,4.797932 5.35629,5.876051 1.24717,-1.384108 -0.4282,-4.768058 -0.31712,-6.989515 -0.31613,-2.10091 -0.52646,-3.829293 -0.72246,-5.745803 -1.04341,-1.80315 0.52567,-2.638973 1.57071,-1.081158 2.01393,2.246697 2.94593,1.411928 2.2988,-0.833053 -1.02616,-1.110567 -0.48525,-2.402671 -1.46353,-3.417291 -0.0139,-0.639353 0.64769,-2.019017 0.005,-1.433783 -0.25448,-1.114158 -0.57734,-3.864233 -0.63198,-2.971467 -0.53563,-0.904311 -1.03536,-3.038733 -0.55947,-2.689238 -0.0884,-1.593543 -0.46812,-2.040806 -0.13893,-2.654794 -0.2935,-0.818695 -1.69203,-2.931009 -0.76852,-2.27081 -1.54035,-1.163003 -0.28364,-2.736633 -0.73541,-4.657426 -0.40556,-1.619406 -0.73956,-3.640451 -1.5744,-5.480478 C 109.0696,9.4431467 107.68952,4.0223876 103.94937,-0.06613295 102.11207,-3.2531949 98.90711,-5.0637106 96.73475,-7.7548135 94.239659,-11.04361 92.555543,-15.0023 91.469519,-19.020937 c -0.349987,-1.971004 -0.913169,-4.084217 -1.552526,-6.146697 -0.385566,-1.624424 -0.694858,-3.395212 -1.268445,-4.885449 0.06486,-0.696549 -0.690296,-3.876737 -0.84155,-3.185458 -0.717439,-1.055612 -2.129325,-6.082973 -1.582994,-4.982046 -1.064626,-2.795504 -0.796599,-6.08761 -2.113012,-8.763001 -0.710545,-1.378575 -1.828857,-3.124049 -2.598278,-4.737909 -0.776511,-1.725057 -2.375444,-2.578926 -3.111879,-4.209148 -1.405917,-1.808267 -2.771305,-2.717753 -3.796264,-3.879744 -1.44516,-1.239883 -2.820334,-2.279512 -4.586441,-2.803935 z m -0.09909,0.256917 c 0.254576,0.469364 -0.402343,0.291594 0,0 z m 2.173231,1.124733 c 0.136737,0.126192 -0.189756,0.07714 0,0 z m -2.843258,2.151599 c 1.491578,1.689754 3.522489,1.705178 5.423428,2.523604 1.405678,1.194818 2.542404,3.443538 3.721767,4.427416 1.028575,1.730658 1.578104,3.877728 2.360578,5.770406 0.735289,1.357127 1.516507,3.492959 2.092913,4.398922 0.630741,-1.442525 0.658605,2.601539 0.281496,0.93806 0.960831,3.49839 1.733016,7.33203 3.05807,10.510705 0.413545,1.058454 0.542537,3.980718 1.432083,5.498413 0.302637,2.651577 1.379167,5.059895 1.732727,7.735733 1.010222,2.78875 1.806955,5.639159 3.46751,8.1282872 1.177782,2.0542028 2.640276,3.9290611 4.438216,5.3721866 4.07731,3.69288079 7.5149,8.5037362 9.34964,13.8751662 0.86947,3.751653 2.93743,7.252155 2.99345,11.225086 -0.49615,1.53 0.35939,2.865281 0.42846,4.400116 0.0468,2.386519 0.85661,4.708381 0.22827,7.118224 0.42984,2.718504 -0.13996,5.358007 0.80607,7.761346 0.69628,2.993384 1.12865,7.207029 0.83575,9.467398 -2.85947,-3.270162 -6.35753,-5.939125 -8.95411,-9.467398 -1.7324,-2.238156 -2.56882,-5.563639 -3.10488,-8.450021 -2.06487,-3.097235 -2.20468,15.606943 -1.85303,6.202385 0.0162,2.481604 -3.039346,-2.038889 -1.7021,-3.101187 -0.0487,-1.936647 -0.0575,-3.717562 0.22824,-5.754244 -0.16755,-3.131311 1.13986,-4.06909 -0.2685,-7.427058 -0.34468,-2.23511 -2.220645,-4.076608 -2.477771,-6.086617 1.656361,0.187139 -1.044728,-5.23771 -0.38839,-3.671586 0.0239,-2.7944739 -0.95229,-5.5505229 1.485604,-5.2115782 C 95.38438,5.4235617 91.08177,-0.63619638 93.212737,2.0198489 91.873491,0.25377247 92.788382,-0.99608614 92.009003,-2.5582087 90.592564,-4.7234975 91.684979,-7.6874866 89.969752,-9.790749 c -0.31262,-1.40482 -3.577963,-3.206285 -2.712604,-0.508435 0.687376,0.4315425 2.895251,4.9147468 0.909135,2.6967094 -0.97186,-2.7785724 -4.865747,-1.3911979 -5.76772,0.523988 0.291331,1.1698899 -3.738411,2.3859226 0.0413,1.3705347 2.670255,0.1541956 5.182713,2.1425911 7.229915,3.5737427 1.828361,2.65048733 -0.898645,3.5205467 1.642049,5.696357 1.822771,1.8631848 0.872431,8.5772982 0.403495,2.7519465 0.17383,-3.1870681 -2.925628,-2.1453119 -3.455732,-5.258484 -0.732003,-1.70319226 -2.240659,-2.287264 -3.395959,-3.2917259 -1.241537,-2.2286019 -2.822889,0.5609329 -4.459447,-0.3969879 -1.85925,-0.355251 -6.241939,4.9828891 -4.23736,1.5652232 0.658403,-2.0459178 2.239749,-3.6787866 2.210028,-4.584645 -0.282709,-1.015725 -1.26258,-0.038912 -2.658122,-0.4162846 -1.932761,1.0586691 -2.830739,2.6864702 -3.921628,4.6127353 -1.718279,1.75012555 -4.497194,2.36741646 -6.183639,4.8927543 -1.381283,1.6390947 -2.871354,3.5455729 -2.0857,5.250628 -2.505808,0.014217 -5.395969,-0.3247954 -3.929582,-3.6470565 0.976727,-2.9961727 1.410654,-6.2841361 2.857094,-9.115414 2.812116,-3.7200211 7.158142,-5.2295726 10.3683,-8.4167812 1.864116,-2.521796 5.4722,-2.34206 6.46565,-5.697148 0.560547,-2.440447 0.14281,-4.903052 -1.394611,-6.837515 -1.675323,-2.537219 -3.266216,-5.124252 -3.717429,-8.268298 -1.446171,-3.476618 -4.163593,-6.050483 -6.667208,-8.59586 -3.253856,-2.404214 -6.773269,-4.475453 -10.084947,-6.65005 -3.385041,-1.004388 -5.524372,2.762524 -6.102077,5.817793 -1.605563,4.269269 -0.663501,9.078908 -2.302161,13.3292 -0.429692,3.641222 -1.872426,7.158825 -1.50305,10.883011 2.561676,3.925862 6.130443,6.752446 8.949827,10.3902986 1.804265,1.8627497 2.254406,4.8170016 3.825561,6.7660072 -0.155948,4.1346756 -1.694699,0.195957 -2.521054,-1.4855426 -1.437329,-1.5654745 -2.097043,-3.8384054 -3.544727,-5.3382504 -1.236035,-0.9200751 -3.596453,-2.1526718 -4.902094,-3.8991448 -3.003244,-2.082183 -3.804009,-5.676521 -3.862224,-9.257781 1.021853,-5.764048 2.215703,-11.478165 3.19175,-17.262822 0.859323,-3.592029 1.292367,-7.615006 4.048174,-10.240448 1.771665,-3.468668 5.65174,-0.793921 8.384549,-0.796691 3.449948,0.403085 6.308041,2.745525 8.134698,5.833664 1.98997,2.251269 3.365242,5.318716 5.123524,7.571922 0.721519,-1.073824 -1.474452,-3.300349 -1.237891,-4.298683 1.286233,0.02868 3.947046,5.682394 3.165982,1.753098 -1.682137,-2.324154 -4.656311,-3.418665 -6.043182,-6.099002 -2.06136,-3.719402 -6.053336,-5.136662 -9.15057,-7.55994 2.264248,-2.870153 4.519573,-5.980132 8.169081,-6.646949 z m 1.244589,0.310334 c 0.225928,0.101453 -0.244037,0.4569 0,0 z m 0.302404,0.07548 c 0.03211,0.327492 -0.212919,0.03971 0,0 z m 0.590236,0.191122 c 0.589281,0.112379 0.08066,0.473243 0,0 z m -5.06279,0.176991 c 0.135125,0.156194 -0.139593,0.104186 0,0 z m -1.187244,0.629866 c 0.135285,0.246187 -0.285608,0.153006 0,0 z m 8.499158,0.284462 c 0.139593,0.104186 -0.135125,0.156187 0,0 z m -9.648716,0.182861 c 0.135126,0.156194 -0.139593,0.104192 0,0 z m -1.909983,0.06929 c -0.331579,0.384401 0.203604,0.430324 0,0 z m 3.962482,0.672332 c 0.76808,0.749046 4.854284,2.627017 1.30569,0.521769 -0.417952,-0.233073 -0.839506,-0.404347 -1.30569,-0.521769 z m 10.452436,0.141756 c 0.0622,0.239336 -0.151003,0.166249 0,0 z m -0.387502,0.231596 c 0.182641,0.269424 -0.182648,0.269424 0,0 z m -13.04526,0.0432 c 0.116062,0.21442 -0.06462,0.21488 0,0 z m 13.688202,0 c 0.07187,0.117024 -0.129427,0.09484 0,0 z m -13.932305,0.266519 c 0.09723,0.077 -0.155287,0.135812 0,0 z m 8.764832,0.08127 c -3.188,0.958889 2.543151,0.779906 2.655543,3.288392 1.797089,-0.263265 -1.542011,-3.372908 -2.655543,-3.288392 z m 0.111821,0.437315 c 0.222963,0.02531 -0.04204,0.27304 0,0 z m 5.937544,0.697021 c 0.127503,0.154857 -0.143803,0.05821 0,0 z m -15.458028,0.02206 c 0.184443,0.289806 -0.170367,0.158963 0,0 z m 2.073634,0.248823 c -0.03389,0.637617 2.536392,1.903175 0,0 z m -2.992851,0.323582 c 0.04651,0.115259 -0.278249,0.249759 0,0 z m -0.290547,0.296282 c -0.450846,0.99451 -0.715196,0.160238 0,0 z m 17.687053,0.349779 c 0.137681,0.158614 -0.137687,0.158614 0,0 z m 0.464431,0.387716 c 0.361814,0.142412 -0.24892,0.341329 0,0 z m -14.607345,0.446446 c -1.199267,0.761854 6.031515,2.189028 3.129337,1.865085 -0.720839,-1.109518 -2.164326,-1.094781 -3.129337,-1.865085 z m -3.552461,0.370179 c 0.194229,0.0326 -0.160679,0.122588 0,0 z m -2.582008,0.278897 c 0.139599,0.104193 -0.135126,0.156194 0,0 z m 1.734493,0.02034 c 0.640951,0.34321 -0.423907,0.389647 0,0 z m -0.317791,0.123342 c 0.345728,0.244735 -0.455981,0.183909 0,0 z m 9.639292,0.02255 c -2.145386,0.18277 3.382553,3.937585 0.123966,3.265695 -4.060608,-0.741981 4.511074,3.000174 3.42179,1.708646 2.26195,1.447666 3.957715,3.55216 5.600248,5.681999 0.411597,0.281466 -2.016952,-4.46873 -3.52404,-5.803907 -1.554015,-2.069816 -3.856335,-3.07752 -5.621964,-4.852433 z m 11.034717,0.382398 c 0.226315,0.353008 -0.586167,0.206546 0,0 z m 0.530907,0.385173 c 0.506211,0.261476 -0.6369,0.647832 0,0 z m -0.356367,0.561135 c 0.182648,0.130334 -0.202483,0.186055 0,0 z m 0.384261,0.321045 c 0.137429,0.134342 -0.210425,0.127417 0,0 z m -6.736992,0.0735 c -1.819922,0.542758 1.824279,3.38797 1.399354,2.760489 0.806464,2.68063 4.311489,4.634176 4.094299,7.988076 0.444779,2.660165 3.436154,8.687963 2.040728,7.202775 -0.48067,1.564869 1.227014,4.202641 1.772841,6.071359 0.7975,2.841938 1.86245,5.636092 2.768621,8.438855 0.05006,-1.842962 -1.856769,-5.678362 -2.490575,-8.283055 -0.467783,-1.10255 -2.826516,-6.853605 -1.099793,-4.378122 0.739033,1.618952 1.323215,3.798157 2.748815,4.679086 0.266495,-0.964777 -1.80758,-5.508401 -1.568269,-4.071287 -1.172414,-2.014936 -1.257733,-4.09359 -1.626643,-5.795754 0.397822,4.459964 -1.518247,-5.445087 -1.446753,-2.908914 1.183353,1.923398 2.008489,3.803945 0.498073,0.182868 -0.947295,-1.963762 -0.743629,-4.41882 -2.55624,-5.872007 -1.627844,-1.92822 -2.729825,-4.204104 -4.534458,-6.014369 z m 6.722714,0.569071 c 0.07187,0.11703 -0.129427,0.09485 0,0 z m -1.001006,0.203188 c 0.137687,0.158607 -0.137681,0.158607 0,0 z m 1.158682,0.09293 c 0.182653,0.130334 -0.202477,0.186054 0,0 z m 0.405469,0.02286 c 0.17503,0.110148 -0.175031,0.110148 0,0 z m -16.450271,0.04676 c 0.75385,0.26446 -0.108936,0.36109 0,0 z m 15.00361,0.121913 c 0.142234,0.175313 -0.203764,0.08159 0,0 z m -14.59387,0.12659 c 0.40822,0.149961 -0.170508,0.383837 0,0 z m 6.143807,0.206362 c 2.376915,1.147585 4.027959,4.199545 0.47415,0.984804 -0.431592,-0.104296 -1.090521,-0.639437 -0.47415,-0.984804 z m 8.512414,0.0031 c 0.178051,0.18633 -0.208397,0.206607 0,0 z m -14.312522,0.02966 c 0.327241,0.136308 -0.176893,0.353541 0,0 z m 0.306749,0.223581 c 1.03542,0.516856 0.809749,1.421923 0,0 z m 0.93026,0.71106 c 0.361201,0.333705 -0.328233,0.227068 0,0 z m 0.277525,0.290332 c 0.634026,0.397362 -0.114855,0.560541 0,0 z m 0.431157,0.405016 c 0.958779,0.525575 0.271636,1.032221 0,0 z m 14.155721,0.767577 c 0.07255,0.160654 -0.368009,0.18598 0,0 z m -13.383953,0.09833 c 0.280025,0.03401 -0.113273,0.315978 0,0 z m 0.309029,0.274615 c 0.176685,0.100797 -0.272936,0.08927 0,0 z m 0.215909,0.114689 c 0.300057,0.137368 -0.340728,0.248277 0,0 z m 8.218692,0.243822 c 0.06508,0.140996 -0.175925,0.06709 0,0 z m -7.94485,0.127864 c 0.622236,0.569616 0.09656,0.975373 0,0 z m 12.77127,0.282948 c 0.144312,0.290369 -0.204119,0.124862 0,0 z m 0.589275,0.07873 c 0.240555,0.557906 -1.238339,0.766088 0,0 z m -12.879403,0.305174 c 0.195504,0.490659 -0.428301,0.03903 0,0 z m 0.08215,0.185086 c 0.131958,0.09001 0.02372,0.1709 0,0 z m 0.311982,0.2393 c 0.469322,0.436138 -0.614668,0.296558 0,0 z m -6.168766,0.121907 c 0.387471,0.173762 -0.237804,0.299837 0,0 z m 5.255285,0.0958 c 0.260116,-0.01777 -0.04878,0.367869 0,0 z m 13.411639,0.151279 c 0.445759,1.014046 -0.333614,1.486922 0,0 z m -18.258594,0.113494 c 0.838415,0.782309 -0.364136,0.107287 0,0 z m 6.1458,0.248982 c 0.985183,0.588925 -0.222479,0.255128 0,0 z m 12.448619,0.203182 c 0.07187,0.11703 -0.129427,0.09485 0,0 z m -17.867408,0.243821 c 0.592651,0.251372 -0.160514,0.300916 0,0 z m -6.693564,0.08127 c 0.509827,0.348131 -0.331573,0.323895 0,0 z m 24.033308,0.08127 c 0.07187,0.117024 -0.129427,0.09484 0,0 z m -11.196224,0.121908 c 0.242026,0.223226 -0.150188,0.285479 0,0 z m -0.614969,0.03303 c 0.05392,0.178137 -0.07266,0.01746 0,0 z m 13.131748,0.05 c 0.14156,0.197715 -0.18557,0.08887 0,0 z m -4.227126,0.201435 c 0.129426,0.09485 -0.07187,0.11703 0,0 z m -8.434375,0.04063 c 0.212716,0.265802 -0.468935,0.33422 0,0 z m 0.514925,0.03922 c -0.176207,0.386828 -0.146064,-0.06452 0,0 z m 0.119769,0.143656 c 0.145341,0.107832 -0.136811,0.202716 0,0 z m -5.653542,0.08127 c 0.141523,0.151235 -0.137981,0.222055 0,0 z m 5.886088,0.0043 c 0.113378,0.573091 -0.55622,0.22477 0,0 z m -5.396116,0.259693 c 0.137687,0.158608 -0.137687,0.158608 0,0 z m 5.499248,0.01164 c 0.870519,0.951137 -0.29304,0.695954 0,0 z m -0.643751,0.119132 c 0.159368,0.240893 -0.219855,0.363793 0,0 z m 12.08607,0.286043 c 0.04584,0.208194 -0.2637,0.09146 0,0 z m -11.869425,0.03205 c 0.347211,0.224672 -0.511916,0.286134 0,0 z m 0.99239,0.259852 c 0.0797,0.556196 -0.527364,0.116601 0,0 z m 7.336573,0.02267 c 0.07187,0.11703 -0.12942,0.09485 0,0 z m -8.011172,0.223342 c 0.129409,0.159913 -0.32792,0.320286 0,0 z m -4.033081,0.08143 c 0.14534,0.107826 -0.136811,0.20271 0,0 z m -4.233237,0.09397 c 0.05393,0.178137 -0.07266,0.01746 0,0 z m 19.765835,0.06579 c 0.354497,0.162578 -0.256978,0.583465 0,0 z m -11.350891,0.167627 c 0.499047,0.86968 0.131357,-0.04859 0,0 z m 11.292364,0.221204 c 0.07187,0.117024 -0.129421,0.09484 0,0 z m -15.080975,0.0049 c 0.688932,0.464934 0.04198,0.261906 0,0 z m 11.481556,0.03597 c 0.07187,0.11703 -0.129427,0.09485 0,0 z m -12.088576,0.08405 c 0.367396,0.145396 -0.162095,0.250311 0,0 z m -0.578159,0.01796 c 0.134501,0.03186 -0.111037,0.125455 0,0 z m 16.614793,0.08937 c 0.254037,0.401774 -0.635234,0.591089 0,0 z m 0.673783,0.133735 c 0.339337,0.320843 -0.580511,0.256739 0,0 z m -35.15319,0.04063 c -0.135125,0.156193 0.139599,0.104192 0,0 z m 18.656697,0.142228 c 0.135125,0.156193 -0.139593,0.104192 0,0 z m 0.523246,0.02034 c 0.175925,0.06709 -0.06508,0.14099 0,0 z m -2.121701,0.01042 c 0.09423,0.163687 -0.305842,0.099 0,0 z m 6.199467,0.01906 c -0.01164,0.137841 -0.162309,-0.06766 0,0 z m -3.771826,0.05184 c 0.135212,0.103825 -0.135217,0.103825 0,0 z m 14.99315,0.08127 c 0.147908,0.155667 -0.36986,0.03959 0,0 z m 0.820944,0.05711 c 0.02463,0.223698 -0.255452,0.170472 0,0 z m -15.927165,0.0037 c 0.134255,0.100192 -0.137792,0.04921 0,0 z m 11.68399,0.02034 c 0.137687,0.158614 -0.137687,0.158614 0,0 z m -7.499262,0.04516 c 0.225279,0.321353 -0.157278,0.640369 0,0 z m -6.361341,0.01802 c 0.714944,3.06322 1.472263,0.59544 3.187258,2.923621 2.384795,2.0735 1.730982,5.833527 2.41829,8.208615 -0.186876,2.87571 -1.279211,5.340871 -2.294844,7.421906 2.999359,-0.248239 2.152591,-2.454847 4.506643,-3.232124 1.345539,2.05213 -2.253475,3.681597 -4.011512,4.445509 -2.931609,1.345202 -6.018278,-0.189345 -8.483042,-1.947944 -1.174247,-1.760487 -4.24733,-3.172347 -1.760623,-0.915675 2.409797,1.315444 -4.246258,-1.606138 -5.104453,1.467685 -1.231383,1.900153 -4.066896,-2.366153 -2.377589,-3.538248 -0.51275,-3.559047 4.977791,-1.568378 0.568084,-0.288506 1.169871,-0.646594 4.424438,-0.555258 3.18431,-2.742098 -1.280399,-1.622776 -4.982472,-1.462557 -1.909174,-1.602137 3.004764,-0.259381 -3.844821,-1.294512 -2.248383,-0.84322 -1.589551,0.635859 4.171008,-1.369517 0.256985,-1.019408 -2.268574,-0.627788 1.245318,-1.428235 2.834648,-0.365178 4.18626,0.353885 -3.326606,-0.447905 0.180576,-1.101001 2.073015,-1.652687 2.243897,-0.747325 3.674804,0.704711 -1.775618,2.223529 2.299942,-0.176053 3.685478,0 0.945493,-0.09419 2.798874,-1.711147 4.361915,-1.015915 0.379849,0.667037 4.045895,-2.143683 1.809131,-2.27645 -3.170314,1.90029 -2.645113,-2.046856 -2.563674,-4.116294 l 0.08503,-0.167708 z m 1.856248,0.140004 c 0.203647,0.04988 -0.211982,0.277985 0,0 z m -16.942523,0.121914 c 0.186618,0.580714 -0.160287,0.262077 0,0 z m 17.189641,0.0072 c 0.52761,0.947265 -0.423221,0.242351 0,0 z m 17.22454,0.317871 c 0.07187,0.11703 -0.129427,0.09485 0,0 z m -18.508145,0.02035 c 0.145341,0.107826 -0.13681,0.20271 0,0 z m 2.382737,0.101594 c 0.616365,0.377035 -0.139912,0.284118 0,0 z m -3.886074,0.150874 c 0.155886,0.214071 -0.148577,-0.0061 0,0 z m 20.046962,0.09294 c 0.139507,0.26728 -0.139507,0.26728 0,0 z m -1.587706,0.108182 c 0.03113,0.287165 -0.382318,0.129236 0,0 z m -10.92547,0.11532 c 0.135126,0.156194 -0.139599,0.104193 0,0 z m 10.965001,0.09247 c 0.354705,0.02212 -0.27459,0.249208 0,0 z m -10.823662,0.01685 c 0.241089,0.06702 -0.234189,0.252413 0,0 z m 11.523808,0.236119 c 0.198586,0.100749 -0.198592,0.100749 0,0 z m 1.082267,0.02047 c 0.589955,0.582731 -0.680083,0.01177 0,0 z m -1.418019,0.01091 c -0.374983,1.657694 -0.03989,-0.283916 0,0 z m -10.914802,0.171832 c 0.137687,0.158614 -0.137687,0.158614 0,0 z m 0.191766,0.302551 c 0.327712,0.217154 -0.04964,0.339166 0,0 z m -7.835388,0.02255 c 0.143018,0.297355 -0.378519,0.353799 0,0 z m -0.438517,0.383029 c 1.962267,2.05826 -0.948937,1.445363 -1.590562,2.743455 1.152616,0.341696 -0.0527,-1.611643 1.590562,-2.743455 z m 18.945038,0.02335 c 0.242865,0.174326 -0.476657,0.168633 0,0 z m -10.45773,0.09818 c 0.0554,0.13132 -0.242014,0.06664 0,0 z m 10.741585,0.342315 c 0.0519,1.020401 -0.322798,0.454847 0,0 z m -22.453843,0.331604 c 0.409507,0.254986 -0.380136,0.287213 0,0 z m 22.524957,0.658201 c 0.329078,0.05582 -0.265643,0.337664 0,0 z m 0.09128,0.260649 c 0.181539,0.214573 -0.419011,0.141345 0,0 z m 0.508969,0.01581 c 0.07187,0.11703 -0.129427,0.09485 0,0 z m -14.45644,0.365729 c 0.135217,0.103825 -0.135212,0.103825 0,0 z m 14.007911,0.01985 c -0.03064,0.407332 -0.325537,0.05478 0,0 z m -27.609391,0.06143 c -0.711256,0.984963 -3.636977,2.300661 -1.228025,0.686462 0.363756,-0.310027 0.785029,-0.537984 1.228025,-0.686462 z m 13.77499,0.132944 c 0.10809,0.117484 -0.164429,0.09547 0,0 z m 14.530343,0.07024 c 0.136608,0.194585 -0.24748,0.11621 0,0 z m -12.894716,0.08127 c 0.135211,0.103824 -0.135218,0.103824 0,0 z m -0.603044,0.182868 c 0.145341,0.107826 -0.136817,0.20271 0,0 z m -0.872694,0.03076 c 0.167229,0.143686 -0.204248,0.138906 0,0 z m -3.839331,0.03015 c 0.37986,0.337075 -0.19573,0.771695 0,0 z m 18.494155,0.05423 c 0.0086,0.125922 -0.30325,0.07403 0,0 z m -0.814462,0.02709 c 0.136732,0.126191 -0.189761,0.07714 0,0 z m -23.611054,0.0049 c 0.126994,1.799505 -2.706594,1.824623 0,0 z m 23.82159,0.210805 c 0.107703,0.17367 -0.364701,0.138294 0,0 z m -27.312067,0.06849 c 0.167818,0.34117 -0.226468,0.08108 0,0 z m 28.006612,0 c 0.165121,0.295125 -0.506212,0.214825 0,0 z m -27.742777,0.02034 c 0.141523,0.15123 -0.137981,0.222056 0,0 z m 19.333348,0.02751 c -0.584666,1.878352 -0.477152,4.895446 1.057101,6.688234 1.01293,2.587847 3.042211,4.724805 3.14522,7.720566 1.025597,3.371749 -1.864128,5.415982 -4.078207,6.863636 -2.277839,1.985699 -4.873856,3.3593406 -7.377728,4.9375979 -2.708873,2.422169 -6.176102,4.0024852 -8.494373,6.84069366 -0.499868,1.18539955 0.4698,5.37423334 -0.694373,4.35784034 0.679323,-2.81348859 1.872714,-5.4920967 4.741372,-5.3574123 3.368753,-1.9524923 5.906512,-5.632192 9.931315,-6.010974 2.396989,-1.9467567 3.946053,1.5155569 2.986956,-1.3428368 3.233916,-1.9344768 5.575491,-4.7894818 6.200276,-8.3361568 0.550412,-2.144325 -1.466693,-3.742644 -1.876525,-5.374593 -0.396602,-2.598907 -2.571425,-4.647374 -3.730163,-7.007369 -0.748513,-1.294066 -0.32645,-3.874023 -1.810871,-3.979226 z m -10.003673,0.195963 c 0.234814,0.148491 -0.363805,0.331886 0,0 z m -16.40036,0.164454 c 1.760255,0.815136 -1.978229,0.614583 0,0 z m 6.672141,0.01097 c 0.240212,-0.03665 -0.01183,0.205982 0,0 z m 14.080116,0.190325 c 0.141529,0.15123 -0.137976,0.222056 0,0 z m -13.888871,0.04063 c 0.20282,0.15574 -0.202821,0.15574 0,0 z m -6.122612,0.0031 c 0.15509,0.133054 -0.337161,0.101318 0,0 z m 20.918848,0.351759 c -0.01164,0.13784 -0.162308,-0.06766 0,0 z m -0.162315,0.06191 c 0.179786,0.235083 -0.210547,0.2706 0,0 z m 13.027146,0.153736 c 0.01115,0.169803 -0.438602,0.19057 0,0 z M 60.219445,-32.5814 c 0.198585,0.398716 -0.203207,0.115413 0,0 z m 25.866214,0.03842 c 0.148809,0.292857 -0.524092,0.222693 0,0 z m 0.51721,0.121908 c 0.02243,0.199321 -0.26253,0.07099 0,0 z m -0.426371,0.260324 c 0.08376,0.190026 -0.420359,0.171458 0,0 z m -13.120564,0.20605 c 0.138545,0.344393 -0.412872,0.11282 0,0 z m 13.262345,0.218336 c 0.175024,0.110155 -0.175024,0.110155 0,0 z m 0.610336,0.02586 c -0.03971,0.234814 -0.259344,0.07656 0,0 z M 72.824713,-31.3364 c 0.0568,0.270166 -0.449676,0.489942 0,0 z m 13.834988,0.296914 c 0.07187,0.11703 -0.129426,0.09485 0,0 z m -20.618797,0.06097 c -0.960292,-0.354032 -5.009147,1.660916 -2.40938,1.037424 1.933061,-1.614743 3.664147,0.276851 5.400313,0.308759 5.471348,1.100381 -6.238961,-1.752908 -1.125266,-0.533125 -0.715349,-0.05209 -1.184426,-0.730509 -1.865667,-0.813058 z m 20.767349,0.05141 c 0.228435,0.04142 -0.476503,0.385351 0,0 z m -13.973674,0.186048 c 0.115994,0.455448 -0.250728,0.113201 0,0 z m -14.261654,0.227706 c -1.808555,0.8511 2.991215,2.82678 1.880833,3.082435 2.416507,-0.64953 3.664276,0.469468 5.628662,1.287685 0.435686,-1.682394 5.540501,-2.711079 1.624805,-3.248316 -2.160338,-1.174926 -7.48697,-0.622426 -6.356408,0.733366 -1.025266,-1.644592 -1.490347,2.545749 -2.777892,-1.85517 z m 11.372014,0.0094 c -1.57447,0.319838 0.05227,0.773331 0,0 z m 17.016799,0.439699 c 0.164294,0.20969 -0.294885,0.09451 0,0 z m 0.526635,0.08438 c 0.216963,0.174717 -0.289517,0.199989 0,0 z m -0.277672,0.195564 c 0.372746,0.239386 -0.506058,0.150476 0,0 z m -35.624025,0.0043 c 0.135211,0.103818 -0.135212,0.103818 0,0 z m 35.680855,0.29874 c 0.05711,0.193211 -0.385327,0.05319 0,0 z m 0.03824,0.572165 c 0.01471,0.176985 -0.199953,0.102605 0,0 z m -12.386563,0.06374 c 0.136731,0.126191 -0.189762,0.07714 0,0 z m -1.095228,0.182868 c 0.135126,0.156187 -0.139599,0.104186 0,0 z m 13.969263,0.113813 c 0.01085,0.183542 -0.45535,0.116625 0,0 z M 67.78912,-28.39836 c 0.175919,0.06709 -0.06508,0.140996 0,0 z m 19.516651,0.01753 c 0.01471,0.176985 -0.199953,0.102605 0,0 z m -22.921001,0.185644 c 0.07187,0.11703 -0.129421,0.09485 0,0 z m -12.847532,0.129611 c 0.63785,0.321713 -0.469064,0.483207 0,0 z m 3.426656,0.409703 c 0.108089,0.117483 -0.164429,0.09547 0,0 z m 32.556677,0.0307 c -0.03762,0.258033 -0.768882,0.360442 0,0 z m -11.152495,0.445895 c 0.206055,0.06073 -0.181888,0.181066 0,0 z m -22.256115,0.101587 c 0.134255,0.100191 -0.137792,0.04921 0,0 z m 0.339208,0.162548 c 0.134261,0.100191 -0.137791,0.04921 0,0 z m 32.988575,0.0064 c -0.01973,0.19665 -0.261476,0.0076 0,0 z m -27.20576,0.39605 c -0.403833,0.777057 1.757761,0.887726 0,0 z m 2.009506,0.227075 c 1.886912,1.915282 4.30329,2.538701 0.838758,0.441843 -0.331683,-0.04222 -0.515292,-0.393323 -0.838758,-0.441843 z m 25.390005,0.19247 c 0.05705,0.179785 -0.355894,0.04222 0,0 z m -27.436395,0.0049 c -0.325757,1.199315 1.714094,1.885121 -1.2e-5,6e-6 z m -3.151263,0.06492 c -0.448805,0.608582 -5.410963,4.207159 -2.915033,2.782265 1.434736,-0.759132 1.553997,-0.506738 2.915033,-2.782265 z m 11.144922,0.02237 c -0.484868,0.338363 0.349013,0.126504 0,0 z m -8.83352,0.07762 c 1.180516,2.64809 3.745476,3.269774 0,0 z m 9.287564,0.0334 c -0.560614,0.65567 1.778663,0.944231 0,0 z m -1.626643,1.489826 c -0.20809,0.898896 1.786715,1.147767 0.233209,0.133023 z m 16.103471,0.877976 c 0.198623,0.122582 -0.325451,0.341279 0,0 z m -19.497881,0.0037 c 1.22941,1.957664 3.048798,1.756884 0,0 z m -7.401799,0.402871 c -2.781544,1.38589 -0.740773,1.596382 0,0 z m 25.387285,0.609551 c 0.07187,0.11703 -0.129427,0.09485 0,0 z m -9.327175,0.04063 c 0.120535,0.308409 -0.697933,0.453511 0,0 z m -2.929311,0.224059 c -0.647128,0.790832 0.98063,0.262806 0,0 z m -2.984377,0.590181 c -0.382538,0.799839 1.634836,0.968509 0,0 z m -6.56459,0.01924 c 0.111031,0.125456 -0.134507,0.03186 0,0 z m 1.094707,0.105639 c 0.306847,0.220621 -0.100846,0.224524 0,0 z m 0.627855,0.08024 c 0.329159,0.23895 -0.280111,0.07662 0,0 z m 5.745344,0.0372 c 0.387741,1.458965 2.750285,1.609545 0,0 z m 11.859553,1.069411 c 0.16522,-0.05815 0.01624,0.07833 0,0 z m -16.92868,0.275086 c 0.291166,0.105969 0.07045,0.243791 0,0 z m 10.538556,0.186752 c 0.530919,0.756571 -0.871285,0.113881 0,0 z m 10.247936,0.01293 c 1.114733,2.625356 0.03389,3.490391 0,0 z m -11.621638,0.571056 c -0.720215,1.068749 -0.498858,-0.18978 0,0 z m 15.436157,0.02574 c 0.455344,2.089903 2.255061,2.31077 0,0 z m -14.543737,0.459786 c 0.206049,0.06073 -0.181888,0.181066 0,0 z m -1.777922,0.05325 c 3.387026,1.148871 -0.03137,-0.528399 -0.916938,0.20431 0.28934,-0.130218 0.60468,-0.191221 0.916938,-0.20431 z m 1.477576,0.02801 c 0.186465,0.145788 -0.133361,0.169999 0,0 z m 8.481345,0.528277 c -0.189755,0.07714 0.136731,0.126191 0,0 z m -12.784813,0.394935 c 0.909995,0.103855 1.351723,0.998365 0,0 z m 1.097067,0.35454 c 3.123681,0.0557 1.637802,1.198084 0,0 z m 3.638661,0.144532 c 0.135212,0.103818 -0.135211,0.103818 0,0 z m 10.764185,0.08278 c 0.185588,0.155495 -0.286086,0.106693 0,0 z m 7.277835,0.07976 c 0.04578,0.194841 -0.437045,0.130995 0,0 z m -17.169325,0.132386 c 0.204248,0.138913 -0.16723,0.143692 0,0 z m 17.286962,0.164932 c 0.16522,-0.05815 0.01624,0.07833 0,0 z m -17.045806,0.07627 c -0.160845,0.779349 -1.371693,-0.0163 0,0 z m -0.584495,0.2766 c 0.671204,0.508687 -0.551686,0.385363 0,0 z m -6.936705,0.223502 c 0.134255,0.10019 -0.137791,0.04921 0,0 z m 10.567265,0.141278 c -0.300584,0.399065 -0.476625,0.05944 0,0 z m 14.430824,0.936228 c 0.138515,0.1013 -0.2725,0.03199 0,0 z m -20.978109,0.784717 c -0.211387,0.315297 -0.489886,-0.109126 0,0 z m 22.631476,0.06802 c 0.06508,0.14099 -0.175919,0.06709 0,0 z m -0.03989,0.243822 c 0.07187,0.11703 -0.129421,0.09484 0,0 z m -0.565352,0.690819 c 0.136732,0.126197 -0.189761,0.07715 0,0 z m -9.102212,0.04063 c 0.07187,0.11703 -0.129427,0.09485 0,0 z m 9.434282,0.445018 c 0.03033,0.258179 -0.324391,0.05362 0,0 z m 0.186318,0.09612 c 0.165219,-0.05815 0.01624,0.07833 0,0 z m -25.651633,0.598044 c 0.07847,0.445735 -1.350932,0.410634 0,0 z m -2.587971,1.420936 c 0.136731,0.126191 -0.189762,0.07714 0,0 z m -16.718586,0.131032 c 3.366418,1.5146748 -1.609405,3.1479787 -0.493729,6.2083041 0.662895,2.3695735 0.183824,5.0601861 1.424797,7.3552325 0.0125,2.0381109 1.794737,4.4967653 1.278378,6.1294748 C 47.93775,9.684328 47.280567,10.553603 45.289267,11.178811 43.553137,12.629118 40.882011,9.7973198 44.019799,10.026159 45.88386,7.0526257 40.650923,6.3048908 41.127218,6.5865645 40.222236,2.288195 39.155514,-2.5677124 40.807288,-6.7714001 c 1.756462,-1.9390417 4.02742,-2.5017639 1.262482,-0.231756 -0.172892,1.3480699 -0.984847,2.7413636 -0.1794,3.9108061 -1.483447,2.771188 -1.739549,10.7605692 3.211402,8.5643469 2.411544,-0.7934916 -0.446029,2.5710273 1.752087,3.1914066 2.525516,1.9478075 3.478338,-3.409767 1.096919,-3.8704051 -2.846757,0.767632 1.431777,-3.80463473 -1.22626,-5.57873869 -0.362923,-3.04369431 -1.654751,-10.24070471 -0.550485,-9.13952711 0.454921,-0.2831446 0.893364,-0.6222606 1.416776,-0.7464116 z m 0.111594,0.112784 c -0.07187,0.11703 0.129427,0.09485 0,0 z m 41.077564,0.01287 c 0.165219,-0.05815 0.01624,0.07834 0,0 z m -42.319131,0.0481 c 0.133201,0.08683 -0.145598,0.06288 0,0 z m 21.973436,0.225567 c -0.792983,0.9484103 -1.198893,0.3181099 0,0 z m 26.477437,1.5421334 c 0.304629,-0.1145911 0.02757,0.1341452 0,0 z m -34.317016,0.9982973 c 0.915932,0.4938021 0.562397,1.4636294 0,0 z m -6.489426,0.4646212 c 0.662472,0.6514477 -0.159496,0.3236373 0,0 z m 30.537232,0.2297706 c 2.826228,0.4437987 0.587319,0.6441861 -0.203838,0.1111963 z m -6.176347,0.9924268 c -0.252781,0.1140335 0.117067,0.2183238 0,0 z m -16.05128,0.2169143 c 0.219286,0.3615014 -0.642611,0.6406136 0,0 z m -10.105346,0.202232 c 0.506885,0.3606619 0.0904,0.6257229 0,0 z m 22.986587,0.1466705 c 0.07187,0.1170301 -0.129421,0.094847 0,0 z m 3.007644,0.1405611 c 0.101478,0.274694 -0.228239,-0.00123 0,0 z m 8.520582,0.014891 c 1.666245,0.6305517 0.04663,0.6651802 0,0 z m 0.977665,0.8559898 c 0.311778,0.2962335 -0.418074,-0.025553 0,0 z m -12.630152,1.4034721 c -0.464051,1.5594447 -1.865525,1.444351 0,0 z m -22.150329,0.4132757 c 0.420463,0.2270437 0.270036,0.3892117 0,0 z m 42.254423,0.052393 c -2.280673,0.2837571 1.99247,2.69816215 0.28507,3.6484047 -0.23985,2.9089854 2.27799,5.0026148 3.15999,7.6030374 -3.28796,-2.463189 0.59203,2.0470241 -0.22394,2.5339381 -2.48784,1.389041 2.00635,5.655729 1.69047,8.343045 2.13213,6.807156 -3.2479,-4.345609 -1.84572,-1.348309 -1.3695,0.918764 -0.77571,-2.47751 -2.18515,-1.439645 0.32764,3.917198 1.69231,7.873718 3.96853,10.99523 0.37855,1.438287 0.68558,1.918021 1.13373,3.580221 1.05339,3.487853 3.49738,6.187234 5.0542,9.285858 3.16712,2.406072 -2.16083,-1.75132 0.0933,-1.623879 -0.38445,-1.611948 -2.13521,-2.873162 -1.33705,-4.376601 -1.20775,-2.570958 -1.87085,-5.398333 -3.16032,-7.92944 0.92014,-0.467568 0.57441,-6.537002 0.55969,-5.3646 0.15637,1.314532 1.79646,3.924851 2.42579,2.18613 0.69235,0.04222 2.53072,3.17896 1.6971,0.321357 -0.7448,-1.824962 -1.41267,-3.924315 -2.4756,-5.380683 C 103.66163,14.310624 101.6052,10.681112 100.34686,6.8179222 98.4438,3.7808276 97.42357,0.25961907 95.27595,-2.5987072 Z m -18.97493,0.1420685 c 0.09074,0.2745347 -0.291362,0.097985 0,0 z m -22.076568,0.4928033 c 0.134501,0.031865 -0.111037,0.125462 0,0 z m 68.514488,0.032784 c 0.0162,0.078345 0.16522,-0.058153 0,0 z m -62.372886,0.014217 c 0.219426,0.063693 -0.08267,0.2962764 0,0 z m -4.589897,0.1891367 c 0.578747,2.25155692 4.198418,2.42108442 3.409056,4.7032194 -0.635858,2.3109482 -0.232663,6.2836734 -3.432532,3.9839852 -1.809486,-1.3545962 -3.146924,-0.7414538 -4.635243,-1.8874634 -1.613118,0.1403956 1.774012,2.0632903 1.202558,1.8021328 1.912876,0.7623743 3.827155,1.2828204 5.783912,1.8922922 0.915553,1.2407985 3.944381,0.08147 5.901769,0.9906773 2.884511,0.4691682 5.759278,-0.047797 8.478839,-0.981461 0.810889,0.4732278 0.849868,4.0634422 2.944999,5.4991282 1.150195,1.393441 2.460437,4.509885 4.50804,3.753498 1.854318,-0.584667 -1.154876,4.409859 -1.553035,3.149265 -0.468426,2.119127 -7.294983,3.036537 -5.614746,2.329699 -1.937969,0.591131 -4.255848,0.754329 -6.289718,1.424289 -2.391438,0.326131 -4.861668,0.508625 -7.260533,-0.137399 -0.952914,-0.598178 -4.880413,-1.312902 -7.129494,-1.626656 -2.333811,-0.619233 -4.25795,-1.619571 -6.456372,-2.612335 -3.786074,-1.413534 -0.110718,-5.474344 -1.568483,-7.921944 2.613499,-1.603479 0.334312,2.503713 1.470425,3.446743 -2.227487,0.864128 -0.123299,3.699609 1.251072,3.878426 1.771843,0.495616 3.927737,2.312334 6.130927,2.744011 2.965668,1.55635 5.7447,-0.491295 8.738256,0.977506 3.290341,0.759708 6.649443,0.762478 9.473294,-0.992335 0.535894,-1.466761 3.006326,0.917268 3.725965,-1.631895 0.482386,-1.927503 1.408877,-1.379935 0.665462,-4.341062 -0.35693,-2.850636 -3.19463,-4.544219 -5.531346,-5.312139 -2.843611,-1.5829608 -5.055753,0.429579 -7.8005,1.185954 C 61.305281,10.514869 58.470639,10.877136 56.825667,9.7059839 55.243145,8.6771667 50.405051,9.1922724 51.263553,8.8103866 50.635079,7.1251306 49.779408,4.9369727 49.78988,3.3430832 c 0.788645,-0.6509268 1.679509,-1.9537669 1.272931,-1.6988169 -1.522727,-2.7121705 0.332246,0.015871 1.300536,-1.60087523 1.303238,0.1656118 2.264168,4.99605183 2.935862,2.56398633 -0.98087,-2.72310258 -0.937754,-2.65675002 0.73334,-0.4165297 1.34133,-0.5748799 -0.908334,-2.02409037 -0.505065,-3.6596064 0.397252,0.99732296 0.556693,1.14292726 0.248669,-0.2589393 z m 28.090086,0.4283503 c -0.09248,1.28477525 -4.223898,3.9445769 -0.514778,0.6151891 0.20024,-0.16619394 0.282427,-0.4997339 0.514778,-0.6151891 z m 1.094419,0.1351686 c 0.382765,-0.063013 -0.0012,0.52598565 0,0 z m -2.324209,0.24905498 c 0.165219,-0.0581535 0.01624,0.0783387 0,0 z m -26.735079,0.39351951 c -0.324275,0.21733102 0.355919,0.2507708 0,0 z m 26.551482,0.16254786 c 0.131675,0.0920712 -0.0738,0.1116314 0,0 z m -26.519899,0.21421193 c -0.05785,0.76497869 0.189498,0.10687617 0,0 z M 38.973492,0.1808882 c -0.35587,1.6633488 -1.193629,3.8212596 0.198911,1.6747528 0.948153,2.2033551 -0.441985,4.4126909 -0.76713,6.4302 0.96427,-1.0360634 1.244816,-4.4583987 1.858234,-1.0591716 0.188806,1.7241373 1.157107,3.4651666 2.013703,5.0726046 0.173487,2.141917 0.970435,4.808392 0.174467,6.761711 1.391934,2.416017 -2.178813,4.611724 -2.501255,7.306437 0.08697,2.042149 0.684617,4.1592 -0.577497,6.089688 -0.821974,2.029298 -0.967529,6.797691 -1.061886,1.579026 2.185259,-1.741494 -1.704663,-2.572324 -1.030812,0.03358 -0.981385,0.554869 -1.540957,1.191109 -1.745015,2.572318 -1.826614,3.803884 -2.757517,8.095029 -3.213541,12.42022 0.413938,3.549973 -2.788303,-6.993725 -1.869748,-4.043456 -0.965611,-2.068787 -0.963932,-4.911071 0.406449,-6.48589 -0.90546,-3.729452 1.203361,-6.896102 2.080394,-10.316369 0.476301,-2.493824 0.654346,-5.218195 0.556595,-7.596985 0.622861,-0.960887 1.298526,-2.07081 1.525422,-3.565789 1.547784,-3.775007 3.394411,-8.0323591 2.107939,-12.251967 -0.165539,-1.7416936 1.213545,-3.1486279 1.84477,-4.62090367 z m 39.469913,0.0713529 c -0.293304,2.2446937 -3.002135,3.0224551 -3.413333,5.0999805 0.849506,1.2224487 -0.24096,3.2147783 -2.193392,2.6887681 -2.387258,0.079264 -4.886669,1.3157914 -7.266862,0.9260743 -2.537692,0.044304 1.86566,-0.9593609 1.194457,-0.9143394 0.33167,-2.8522842 3.447864,-1.2623104 4.964088,-2.7830638 2.315771,-1.5444253 4.607699,-3.1562081 6.715042,-5.0174197 z M 56.052128,0.46137916 c -0.110541,0.14425005 0.209745,0.12985568 0,0 z m 0.203911,0.83400304 c 0.14694,0.033091 -0.133343,0.184265 0,0 z m -0.771327,0.7155022 c -0.04198,0.2732785 0.222833,0.025063 0,0 z m 34.460714,0.15517 c 0.0096,0.4244775 0.48355,0.4866508 0,0 z m -44.34153,0.3305679 c -0.07171,1.1203951 -0.780439,0.6593955 0,0 z m 35.023702,0.075557 c -0.944335,1.1652572 -3.061048,4.8573782 -0.559388,4.424003 0.840321,-0.5701921 3.599663,-0.4784212 2.575304,-0.2187221 1.836988,-3.6767767 -0.843225,0.9628967 0.996661,1.590078 2.086914,0.057908 2.14788,-2.7709368 3.198368,-4.1685934 1.253509,2.5350382 -0.594765,5.6105882 -2.399882,7.4837422 -2.139374,1.226022 -3.445615,5.890323 -5.843616,5.215068 -1.688614,-2.011399 -3.322635,-4.169543 -4.658504,-6.455128 -0.01992,-2.2699061 2.427831,3.687844 3.841984,0.111197 -0.523804,-2.7997346 -3.448103,-2.6072889 -0.0065,-4.82771 1.044342,-0.956634 1.763398,-2.2473961 2.855556,-3.1539347 z m -3.183134,0.035235 c 0.07023,0.1118398 -0.121521,0.0687 0,0 z m 10.626447,0.6790783 c 1.621722,0.4612815 -0.384914,2.5283343 0,0 z M 43.674696,3.5420552 c 0.613583,0.4187111 -0.652649,0.6115797 0,0 z m 66.173714,0.113819 c 0.0213,0.1568673 0.19692,-0.1109206 0,0 z M 83.485581,4.8149668 c 0.315292,0.063178 -0.125958,0.2129435 0,0 z M 42.126446,5.5942112 c -0.137791,0.049207 0.134256,0.1001906 0,0 z M 48.27512,5.8191407 C 48.740415,6.682582 48.955534,8.3217809 47.638428,8.2766308 45.307424,6.1612781 47.98105,6.6269349 48.27512,5.8191407 Z m 53.1947,0.1848533 c -1.44658,-0.1787376 3.69537,3.3075696 2.90134,3.672619 -0.75514,-1.6402927 -1.7355,-2.3433003 -2.90134,-3.6725332 z M 42.559816,7.7170828 c 3.056704,1.3026686 -1.319349,3.7220522 0,0 z M 63.04456,8.2762325 c -0.137791,0.049207 0.134261,0.1001907 0,0 z m 0.188456,0.2235018 c -0.135217,0.1038245 0.135212,0.1038245 0,0 z m 11.724036,0.1185804 c 0.427885,0.247186 -0.530569,0.2700674 0,0 z m 4.496998,0.1777021 c -0.115143,0.1537911 0.209972,0.1147688 0,0 z m 0.870703,0.028801 c -2.073487,-0.5363601 -2.624328,1.7966332 -2.228216,3.3982432 -0.424048,0.715276 0.829187,5.933371 2.810351,2.459709 0.435024,-1.298765 1.142278,-3.889034 2.808593,-3.520075 1.439736,-0.268572 0.774452,-3.0651266 -0.778178,-1.3625992 -1.034311,0.4538302 -1.757522,-0.7078167 -2.61255,-0.975278 z m -29.09823,0.2631871 c 0.06805,0.6912562 -1.642563,1.2953411 0,0 z m 24.333131,0.1431795 c 4.101782,0.9822786 -1.511408,3.0399996 0,0 z m 16.665297,0.05895 c 0.148564,-0.050432 0.217245,0.4164316 0,0 z m 11.651669,0.1035733 c 0.48468,0.2271111 -0.25023,0.1647416 0,0 z M 87.196533,9.5178461 c 1.580174,3.1981349 -0.07499,6.4108789 2.98261,8.9012569 1.72157,2.642331 3.685564,5.440016 2.766782,8.787371 0.400714,2.535373 0.04069,7.192982 -0.365141,2.985678 -0.09807,-1.967286 -3.042996,-3.605108 -3.040104,-5.99581 0.248357,-3.318493 -4.253744,-3.878917 -4.032865,-5.787558 -0.592975,-1.911117 0.985233,-4.273766 0.788626,-5.946049 -1.101552,2.153645 -1.431709,7.56214 -1.372661,6.074232 -0.591676,-1.069356 -1.864159,1.954055 -2.053241,1.375933 0.842981,2.270259 -0.771388,5.086554 -1.336806,7.706366 1.912305,0.781088 2.799155,-2.091191 3.700975,-3.588818 -0.511076,2.355038 -2.052156,4.392273 -2.365063,6.860043 -1.564157,1.98665 1.165612,3.541424 0.76219,0.736131 1.53054,-2.498967 2.258194,-1.632688 0.860402,0.837897 0.965182,1.490674 2.872911,1.036239 -0.04767,2.871055 -2.431152,3.128371 -7.513111,2.703746 -11.058555,4.014883 -1.853539,1.239117 -5.956822,1.520135 -7.236401,1.731626 0.146787,-1.628524 3.227666,0.03738 2.960386,-1.745769 -1.49338,-0.392827 -4.125618,1.378967 -3.789934,1.266079 -0.761737,0.329386 -2.182771,-2.61668 -3.858388,-2.537011 0.08083,-0.458328 6.593544,-0.306026 9.075497,-0.722837 3.552038,-0.323305 7.657802,0.405989 10.604645,-2.185231 1.66876,-2.607326 0.516329,-5.768478 -0.228698,-8.504671 -0.8442,-3.092049 -0.815423,-5.135234 1.165141,-7.519404 1.441489,-2.789755 -0.982733,-2.683271 0.982745,-4.661636 1.513081,-1.525257 2.89486,-3.168378 4.135564,-4.9537569 z M 34.70146,9.7797573 c -0.232467,0.1266876 0.232467,0.1266876 0,0 z m 15.734739,0.064447 c 0.375908,1.6165257 -2.080975,0.5235287 0,0 z m 41.850147,4.596e-4 c 0.694631,1.9264551 -0.140978,2.5413991 0,0 z M 53.0001,10.668182 c 0.623994,0.0055 -0.06175,0.342848 0,0 z m 1.433039,0.442567 c 4.25923,0.762472 1.449425,1.866537 0.03144,0.124763 -0.08846,-0.0307 -0.490996,-0.07521 -0.03144,-0.124763 z m -15.81336,0.0904 c -2.482443,0.202851 -1.735314,3.756819 -2.852462,5.532222 -0.01281,2.270014 -0.238987,4.36281 -0.877407,6.53783 -0.478813,4.427937 1.379194,-6.022084 1.630106,-0.798529 -0.575322,3.089415 0.221645,5.02027 -0.37263,8.10915 3.133842,3.71107 2.286223,-11.213022 2.327745,-6.477508 0.02727,-2.918968 -1.58862,-5.946944 0.01875,-8.727287 0.148387,-1.356533 1.42818,-3.852426 0.125873,-4.17588 z m 9.365671,1.199733 c 0.1919,0.754469 -0.949514,0.575799 0,0 z m 0.169239,0.08127 c 0.189756,0.07714 -0.136737,0.126191 0,0 z m 30.701906,0.0066 c 0.732268,0.06528 -0.03309,0.331076 0,0 z m -35.33281,0.08246 c 0.146842,0.137056 -0.14672,0.137472 0,0 z m -3.363269,0.439227 c -1.03012,0.683496 -0.398287,6.158239 -1.019476,4.812436 1.737699,1.201933 -0.422596,-4.373699 1.228614,-4.51782 z m 38.729574,0.497963 c 1.97769,0.396841 0.579292,3.571003 0,0 z m 5.735771,0.681934 c -1.625993,1.641233 0.547274,1.970827 0,0 z m -17.648998,0.07984 c 0.433393,0.916 -1.091435,0.007 0,0 z M 90.30952,14.3859 c 1.401413,1.825615 -0.293666,1.460903 0,0 z m -30.419679,0.02114 c 0.777614,0.11206 0.01262,0.302434 0,0 z m 23.729867,0.362794 c -1.98861,3.317794 0.762228,1.257954 0,0 z m -38.063444,0.638199 c 0.13042,0.07635 -0.139053,0.133177 0,0 z m 29.620153,0.02323 c 0.169657,0.150997 -0.0061,0.294855 0,0 z m -29.411162,0.317233 c 0.150207,0.181557 -0.377648,0.114083 0,0 z m 1.132847,0.437959 c 0.666522,1.007802 1.075797,2.565145 -0.291006,2.98426 -2.565365,-6.373302 0.242749,1.718212 0.245586,-2.740744 l 0.04541,-0.243503 z m 28.659634,0.181753 c -0.02451,0.289811 0.194235,0.0089 0,0 z m 0.03769,0.325255 c 0.04731,0.205804 0.139415,-0.01085 0,0 z m -18.63785,0.665127 c 0.194584,0.02212 -0.179749,0.19937 0,0 z m -14.550663,0.325034 c -0.136737,0.126191 0.189756,0.07714 0,0 z m 3.801565,0.05025 c -0.238399,0.08797 0.01029,0.357984 0,0 z m 0.45155,0.156671 c 0.05368,0.198463 0.311174,0.04173 0,0 z M 60.008501,18.09 c 1.035438,0.903524 -0.474426,1.684367 0,0 z m -4.445469,0.415414 c 1.183396,1.63934 -0.4058,1.810406 0,0 z m 16.964534,0.04265 c 0.10809,0.117484 -0.164429,0.09547 0,0 z m 12.710684,0.01318 c 0.217276,-0.01029 -0.04247,0.234599 0,0 z m -12.273785,0.86194 c 3.034374,0.97291 -1.514828,3.781539 -1.090957,0.787897 0.640344,0.149765 0.67705,-0.567723 1.090957,-0.787897 z M 59.500494,19.87503 c 3.446185,0.828604 -2.168021,2.555677 0,0 z m 23.535596,0.176826 c 1.406701,0.934855 -0.60468,2.376798 0,0 z m -49.31458,0.07 c 0.137687,0.158614 -0.137694,0.158614 0,0 z m -0.168284,0.650186 c -0.442512,0.263768 0.133361,0.216117 0,0 z m 35.66238,0.500101 c 0.109266,0.788761 -1.650437,0.313919 0,0 z m -24.454378,0.64638 c 1.93107,0.266042 -0.610464,1.714216 0.155844,3.557375 1.053896,1.409894 -0.237387,2.452447 0.57632,3.93818 1.007483,2.785541 2.668522,-0.477916 3.510203,0.907605 1.977347,1.049496 4.245051,1.233453 6.395057,1.451569 0.882536,-0.371151 1.643433,2.761753 3.377467,1.925224 2.343493,-1.972513 5.20215,-0.350089 7.75257,-1.325922 3.268893,-0.630671 5.253833,-1.359112 7.456636,0.972891 -2.931897,0.583823 -5.905875,0.864049 -8.874368,0.768505 -3.112333,0.439407 -6.273247,0.652153 -9.411249,0.393032 -3.813195,-0.38166 -7.680341,-1.919189 -10.462222,-4.819707 -1.837784,-2.308404 -1.51517,-5.247146 -0.476258,-7.768752 z m 3.996499,0.153895 c 0.12942,0.09485 -0.07187,0.117031 0,0 z m 42.399596,1.097189 c -0.234777,1.728439 1.255759,3.52491 0.245427,0.255091 z m 11.244517,0.376687 c 0.2084,0.206607 -0.17805,0.186324 0,0 z m -23.599428,0.110957 c -0.173406,2.7966 1.85509,5.912009 0.574476,8.511142 -2.226255,0.638649 -5.094141,2.555374 -3.554955,-0.810505 0.734756,-1.594131 2.349695,-4.63954 2.204654,-7.385708 0.241935,-0.155292 0.524025,-0.189718 0.775825,-0.314929 z m 25.268038,0.284456 c 0.19458,0.02212 -0.17975,0.19937 0,0 z m -54.178185,0.100558 c 1.621765,-0.05668 -0.249165,0.695844 0,0 z m 54.762375,0.04167 c -0.13959,0.104186 0.13513,0.156194 0,0 z m -44.399168,0.38605 c -0.135211,0.103818 0.135218,0.103818 0,0 z m 52.111848,0.04063 c 0.20063,0.108243 -0.31504,0.215168 0,0 z m -45.013557,0.0478 c 0.206283,0.02249 -0.161138,0.247922 0,0 z m 6.157872,0.785746 c -1.094082,1.50916 -1.101031,-0.08987 0,0 z M 18.002298,26.18436 c -0.210425,0.127416 0.13743,0.134335 0,0 z m 95.457672,0.236198 c 0.29976,0.207704 -0.54907,0.240121 0,0 z m -1.83092,0.472955 c 0.0857,-0.0429 0.0959,0.224709 0,0 z m -28.761611,0.54296 c 0.129426,0.09485 -0.07187,0.11703 0,0 z m -36.80538,0.56892 c 2.108808,-0.462301 1.753992,3.126434 0.08098,0.754471 -0.237834,-0.206752 -0.199756,-0.535284 -0.08098,-0.754471 z m -11.169943,0.203179 c 0.08303,1.705387 -0.54625,4.338095 -1.288537,6.085313 1.560241,-1.054742 2.063535,-4.304559 1.288537,-6.085313 z m 79.256074,0.609548 c -0.0913,0.119302 0.24882,0.393021 0,0 z m -26.223035,0.734311 c 0.14271,0.25689 -0.195632,0.119062 0,0 z m -40.367774,0.11905 c 0.156236,0.242913 -0.293758,0.166568 0,0 z m 56.384609,0.162548 c 0.20153,1.883016 1.91124,3.809006 0.67614,0.8213 l -0.28025,-0.520338 z m -16.170393,0.121912 c 0.07187,0.117024 -0.129427,0.09484 0,0 z m -29.71261,0.784786 c 2.164173,0.26452 0.628241,3.889533 -0.930848,1.352273 0.143147,-0.18084 0.393237,-1.119164 0.930848,-1.352273 z m 56.772043,0.0889 c -0.13779,0.04921 0.13426,0.100189 0,0 z M 73.495218,30.93629 c 3.27219,0.542781 -0.324636,3.029351 -0.64774,0.469387 0.212649,-0.161469 0.439356,-0.301219 0.64774,-0.469387 z m 36.544722,0.116834 c -0.0651,0.14099 0.17593,0.06709 0,0 z m -66.169293,0.04204 c 0.745498,0.421129 2.052738,1.953161 2.72548,2.531205 -1.056187,1.95565 1.259007,3.454879 0.07038,4.826462 -2.916228,0.465889 -3.393877,-4.570557 -2.816319,-7.249347 l 0.01906,-0.107224 0.0012,-0.0012 z m -4.476752,0.105795 c -0.197765,0.09647 0.199088,0.03511 0,0 z m 75.584365,0.09596 c -0.20767,0.401214 0.77006,0.457915 0,0 z m -59.758854,0.284454 c 0.577514,0.105448 -0.514264,0.09012 0,0 z m 35.122426,0.08485 c 0.510488,2.021788 -0.383182,0.854557 0,0 z m -15.613288,0.158975 c -0.180294,0.653479 0.155004,0.12877 0,0 z m -16.91852,0.02231 c -0.05938,0.424786 0.314231,-0.0086 0,0 z m 31.323061,0.180882 c -0.142522,2.071753 -1.353865,2.28899 0,0 z m -15.077369,0.0037 c -0.187905,0.272901 0.25302,0.02923 0,0 z m 41.221194,0.148738 c 0.13014,1.256502 0.92129,0.712159 0,0 z m -3.37674,0.714236 c 1.53352,2.180083 1.26395,5.086831 2.73276,7.311487 -1.22754,-1.107055 -2.8814,-2.63602 -2.95957,-4.309148 -0.59846,-1.010921 0.25256,-1.508041 0.17866,-2.975511 l 0.0482,-0.02715 z M 44.629314,33.20805 c -0.2142,0.175527 0.232797,0.108745 0,0 z m 29.567153,0.07983 c 0.175919,0.06709 -0.06508,0.140996 0,0 z m 0.529871,0 c 0.255771,0.07225 -0.203783,0.125603 0,0 z m 23.837572,0.01085 c -0.0848,0.125021 0.18905,0.08658 0,0 z m -61.884006,0.02714 c -1.507824,1.349846 -4.771288,5.884699 -4.334316,6.564237 1.310378,-2.314766 2.991553,-4.610022 4.653505,-6.429859 l -0.166666,-0.100877 z m 79.050616,0.04326 c -0.0652,0.359753 0.69882,0.272571 0,0 z m -70.839804,0.108737 c -0.350434,0.12048 0.163743,0.163522 0,0 z m 70.772964,0.09429 c -1.1415,1.305021 0.44291,0.426155 0,0 z m -69.279853,0.143417 c 0.458095,0.275409 0.04682,0.441877 0,0 z m 68.374033,0.22247 c -0.25875,0.205582 0.17663,0.114046 0,0 z m 1.37657,0 c -0.31353,0.571819 0.9233,0.356867 0,0 z m -57.967084,0.105639 c 0.0125,0.295704 0.589084,0.129492 0,0 z m 57.452974,0.219449 c -0.20378,0.125603 0.25577,0.07225 0,0 z m 0.36026,0 c -0.29191,0.19041 0.33116,0.06445 0,0 z m -77.612344,0.192391 c -0.273762,0.427625 0.331046,0.348588 0,0 z m 66.943634,0.02653 c 0.48607,2.906758 3.60111,4.87908 0.58656,1.057186 -0.20024,-0.340444 -0.18289,-0.87968 -0.58656,-1.057186 z m 6.72264,0.106196 c 0.49949,1.697128 1.14962,0.905148 0,0 z m -21.821137,0.361763 c 1.499153,2.578171 -1.323852,3.865833 -3.009345,4.696061 -2.200806,1.682259 -4.778274,3.29107 -7.553298,3.902472 -3.043774,1.003709 -6.297243,0.734897 -9.27586,2.106995 -2.017515,1.645394 -4.855883,-2.650874 -1.269026,-2.75718 2.807054,-0.900742 5.644913,-1.684649 8.506003,-2.335821 3.778965,-0.969926 7.534546,-2.070062 11.005572,-3.961039 1.356091,0.558049 0.677724,-1.295957 1.595954,-1.651488 z M 48.03462,35.563524 c 0.212343,0.08529 0.0012,0.184135 0,0 z m 0.310719,0.196439 c 0.349264,-0.185936 0.07438,0.230212 0,0 z m 1.441655,0.389461 c 0.953754,-0.02905 0.162714,1.361773 0,0 z M 46.4065,36.29498 c -0.189756,0.07714 0.136731,0.126189 0,0 z m 47.421458,0.0481 c 1.16307,0.555623 1.739442,6.50895 1.132988,3.64984 -0.413251,-1.157622 -1.244852,-2.38925 -1.132988,-3.64984 z m -37.345856,0.149531 c -0.324127,1.002957 -1.595403,0.04522 0,0 z m -1.037957,0.27596 c 0.146499,0.04467 -0.110859,0.114291 0,0 z m -37.32421,0.01403 c -0.129427,0.09485 0.07187,0.11703 0,0 z m 23.659564,0.09096 c 0.444301,1.416786 0.65192,9.051836 0.02923,3.961047 0.05356,-1.191938 -0.234587,-2.661805 -0.02923,-3.961047 z m 8.388005,0.07159 c 0.614956,0.77958 -0.238276,0.100342 0,0 z m 1.626502,0.08127 c 0.199407,0.181089 -0.185349,0.119626 0,0 z m 51.735744,0.123499 c 0.0373,1.096294 2.46665,4.782913 1.98236,3.597593 1.94694,3.531 0.19259,-0.729701 -0.85745,-1.948497 -0.34628,-0.568134 -0.69375,-1.148694 -1.12491,-1.649096 z m -25.613354,0.0069 c -0.807861,1.161991 0.830234,0.22466 0,0 z m -25.966699,0.03211 c 4.423114,0.405616 -4.465366,2.648281 -0.75874,0.31811 0.216987,-0.173983 0.582852,-0.0881 0.75874,-0.31811 z m 38.0273,0.300412 c -0.210131,0.252236 0.411505,0.10361 0,0 z m -33.254548,0.302344 c 3.329823,0.222104 7.334956,1.734481 8.3613,5.546653 3.50747,1.962634 3.231538,6.561379 0.814468,9.33318 -3.232862,4.043744 -10.030728,5.159807 -13.199627,0.461606 1.043392,0.202079 4.102572,2.234178 6.162363,1.771825 3.092025,-0.685764 7.563678,-1.828391 7.431022,-6.123133 0.04718,-3.158874 -1.376491,-6.650454 -3.731266,-8.436244 -3.909176,-1.19089 -8.357752,-0.722684 -12.0444,0.338032 -2.279954,1.829371 -0.738114,5.401502 -0.0037,7.766768 0.860187,2.817202 -0.474285,-6.953532 -1.347721,-5.399762 -0.610433,-3.348274 3.198344,-3.857426 5.361371,-4.845925 0.722911,-0.188818 1.433192,-0.492405 2.195879,-0.413 z m 4.902094,0.06135 c -0.06491,0.203733 0.483053,0.0061 0,0 z m 15.850757,0.0083 c -0.139777,-0.04602 -0.234789,0.405953 0,0 z m -15.476651,0.170697 c -0.08885,0.265214 0.490064,-0.01538 0,0 z m -25.170487,0.01029 c 1.338486,1.145348 2.921272,4.393278 0.285473,2.438199 -1.929287,0.318846 -1.427451,0.144986 -0.285473,-2.438199 z m 25.707723,0.121908 c -0.525581,0.181961 0.144281,0.21825 0,0 z m 53.159815,0.162548 c -0.0719,0.11703 0.12942,0.09485 0,0 z m -52.806322,0.08738 c -0.06952,0.432866 0.624129,0.316921 0,0 z m 39.345582,0.197072 c -0.1954,0.326873 0.41335,0.126964 0,0 z m 13.63889,0.0072 c -0.20629,0.02249 0.16114,0.247927 0,0 z m -25.085333,0.01109 c 0.333105,0.323068 -0.0429,0.566552 0,0 z m -34.270199,0.144293 c -0.474242,0.664782 0.601211,0.520642 0,0 z m 6.745313,0.01287 c 0.01624,0.07835 0.165214,-0.05815 0,0 z m 34.171109,0.230965 c 0.18976,0.07714 -0.13673,0.126191 0,0 z m -43.406703,4.6e-4 c -1.026571,0.601505 0.487521,0.381221 0,0 z m 1.461528,0.07929 c -0.243338,0.347113 0.404439,-0.0083 0,0 z m -1.20852,0.01587 c 0.630313,0.40879 0.628186,-0.135071 0,0 z m -0.719645,0.06698 c -0.19831,0.175276 0.248393,0.13333 0,0 z m 58.45383,0 c 0.94512,0.625049 -0.11497,0.495163 0,0 z m -58.864299,0.08619 c -4.172515,1.377097 -0.602131,1.041431 0,0 z m -0.136039,0.116987 c 0.24794,0.2515 -0.164815,0.103941 0,0 z m 36.806635,0.04792 c 0.227503,3.081331 -2.973651,5.322134 -4.52402,7.753434 -3.60945,0.749034 -6.443008,4.475936 -10.424303,4.141594 -2.746805,0.30301 -9.418596,1.028716 -5.510002,-3.578615 3.498554,-0.220983 6.722708,-1.973829 10.317273,-1.805797 2.641265,-0.86672 5.079881,-2.119642 7.53386,-3.549673 1.082615,-0.743212 1.738474,-2.02515 2.607192,-2.960943 z m -29.240095,0.04136 c -0.113954,0.42623 0.634774,0.528259 0,0 z m -27.639866,0.399606 c -1.295842,1.997048 -0.893903,4.954554 0.02316,0.729872 0.140726,-0.136265 0.438689,-0.660811 -0.02316,-0.729872 z m 56.128727,0.104057 c 0.151836,0.510623 -0.474861,-0.0606 0,0 z m -20.108362,0.05717 c -0.135212,0.103825 0.135217,0.103825 0,0 z m 19.716448,0.284456 c 0.06508,0.140996 -0.175925,0.06709 0,0 z m -31.343903,0.22398 c 4.121593,-0.873056 7.558268,2.500366 7.838183,6.890458 1.144355,3.690233 -2.051887,3.6223 -4.085721,2.333842 -2.325618,-0.383053 -3.806424,-2.810548 -5.922892,-2.21343 -2.75327,2.888917 -4.607802,0.417094 -4.789757,-2.906957 -1.325041,-4.656672 4.422998,-3.759889 6.960187,-4.103913 z m -21.353462,0.0277 c -0.147087,0.112477 0.324606,0.01379 0,0 z m 52.273267,0.03254 h 0.152535 z m 9.268729,0 c 0.92022,0.191594 0.10243,2.227437 0,0 z m -57.51775,0.126191 c 0.742808,0.898842 -0.68202,0.55353 0,0 z m 6.045903,0.02739 c 4.143335,1.076073 0.927674,1.287368 0,0 z m 66.424587,0.08009 c -0.18214,0.178125 0.18136,0.164846 0,0 z m -71.291562,0.701221 c 0.135212,0.103824 -0.135217,0.103824 0,0 z m 24.345719,0 c 0.129427,0.09485 -0.07187,0.11703 0,0 z m -13.423631,0.487637 c -2.926658,0.521108 -1.467594,5.540936 1.135488,5.419764 2.497591,-1.428033 4.218622,-1.789547 6.599115,0.264295 2.799425,0.856627 4.343869,-1.89535 2.58142,-4.208835 -1.191062,-3.197063 -6.466661,2.158143 -4.812504,1.893579 -0.582717,-1.49615 -1.958362,-5.235725 -1.92287,-1.005443 -0.625116,-0.112213 -2.050226,-2.417591 -3.580649,-2.36336 z m 38.388673,0 c 0.210161,0.60783 -0.549124,0.241077 0,0 z m -47.19488,0.138741 c 1.058748,1.333314 6.466207,1.623843 4.178398,3.526816 -2.122167,0.219108 -5.14496,-0.383298 -4.178398,-3.526816 z M 89.667227,43.0813 c 2.53407,2.930458 -2.178468,5.965107 -3.928771,7.720975 -2.949932,2.380867 -6.473788,4.643478 -10.269647,4.185579 -1.821093,-0.648316 -9.1111,-1.017263 -7.411444,-3.483491 1.982917,1.971581 5.103081,2.737975 8.065722,1.876911 2.438286,-0.223422 4.884041,-1.27679 6.831662,-2.816234 2.367447,-1.282256 2.149632,-2.608934 2.184119,-2.319705 2.048878,-0.882039 3.233332,-3.351797 4.528359,-5.164035 z m -47.547411,0.210566 c 0.241481,0.100718 -0.337204,0.09405 0,0 z m 18.591625,0.358352 c 0.216712,0.243147 -0.481136,0.465362 0,0 z m -28.462949,0.284455 c -0.5372,1.448745 1.5683,2.195071 0,0 z m 72.133708,1.309422 c 1.07421,1.181527 0.78334,1.202227 0,0 z m -60.625654,0.660584 c 1.723659,1.155336 4.641781,-0.455472 5.138764,2.120647 -0.741001,1.97831 -5.341977,1.660549 -5.246976,-1.842619 l -0.0364,-0.238583 z m 16.988905,0.265012 c 0.137681,0.158614 -0.137687,0.158614 0,0 z m 30.248668,0.162548 c 0.07187,0.117024 -0.129427,0.09485 0,0 z m -42.759051,0.395174 c -0.01164,0.137834 -0.162315,-0.06766 0,0 z m 4.05502,0.732495 c -0.06591,0.04063 0.06116,0.223778 0,0 z m 33.163116,0.831619 c -0.375761,0.0174 0.0727,0.347536 0,0 z m -28.693283,0.424306 c 3.613862,0.43609 2.115506,5.215914 0.329569,1.017821 0.150439,-0.308808 -0.612977,-0.730056 -0.329569,-1.017821 z m -1.683031,0.430416 c 1.030652,3.83713 -3.115066,0.975483 -0.619387,0.08969 l 0.532665,-0.0839 z m 42.22557,0.07119 c 0.42943,0.271532 -0.29587,0.292287 0,0 z m -47.951188,0.227632 c -1.196393,0.157143 -4.00838,1.716974 -1.844538,2.732815 -4.298731,-0.383696 -1.290039,-3.374691 1.844538,-2.732815 z m 6.60751,0.138098 c 0.137687,0.158614 -0.137687,0.158614 0,0 z m 0.150758,0.230487 c 0.455815,-0.244361 0.120651,0.529693 0,0 z m 0.391185,0.565658 c 1.242358,1.804712 0.223311,2.018097 0,0 z M 51.42115,50.55845 c 0.227675,0.195258 -0.343823,0.251365 0,0 z m 9.960907,0.249772 c 1.69859,0.181587 0.500028,1.657907 0,0 z m -9.784455,0.158503 c 0.926828,0.907691 -0.05797,1.165919 0,0 z m 1.61663,0.327235 c 1.672056,1.042062 3.924318,1.98057 0.784655,1.282667 L 53.437066,51.8385 53.214232,51.293953 Z m 10.319565,0.17731 c 2.893671,-0.270062 -2.918766,1.598074 0,0 z m -13.021925,0.174926 c -0.61848,0.618737 -1.403729,-0.06962 0,0 z m 9.006804,0.740908 c 0.412252,0.255955 -0.355723,0.215456 0,0 z m 2.288943,0.203182 c 0.237828,0.08992 -0.474708,0.251255 0,0 z m -9.243174,0.08127 c 0.129427,0.09485 -0.07187,0.11703 0,0 z m 5.548792,0.129371 c 0.968424,0.223557 -0.281288,0.669881 0,0 z m -2.12729,0.715429 c 0.19073,0.331579 -0.318937,-0.01746 0,0 z m -20.915099,1.149025 c 0.05062,0.227737 -0.136964,0.143564 0,0 z m 31.53765,0.403747 c -0.129427,0.09484 0.07187,0.11703 0,0 z m 0.309617,0.116356 c -0.07717,0.284144 0.350042,0.06678 0,0 z m -19.988074,0.05711 c -0.02997,0.205866 0.196435,0.02041 0,0 z m 19.827009,0.273505 c -0.181888,0.181067 0.206049,0.06079 0,0 z m -10.089218,0.216038 c 0.01624,0.07835 0.165213,-0.05815 0,0 z m 0.446832,0.0043 c -0.228705,-0.02402 -0.0049,0.193616 0,0 z m 0.646183,0.07698 c 0.01624,0.07835 0.165214,-0.05815 0,0 z m 0.301375,0.02843 c -0.267089,0.085 0.346304,0.05344 0,0 z" />
  </g>
</svg>
